<svg width="93" height="40" viewBox="0 0 93 40" fill="none" xmlns="http://www.w3.org/2000/svg">
<path fill-rule="evenodd" clip-rule="evenodd" d="M27.0423 4.07729C24.944 3.35677 22.7399 2.99267 20.5214 3.00011C18.2961 2.99519 16.0854 3.35918 13.9792 4.07729C11.92 4.77319 10.0176 5.86704 8.38028 7.29666C6.72002 8.76587 5.38864 10.569 4.47323 12.5882C3.45709 14.8724 2.95535 17.352 3.00352 19.8516C2.95262 22.3416 3.45458 24.8118 4.47323 27.0845C5.39518 29.091 6.72593 30.883 8.38028 32.3456C10.0171 33.7745 11.9197 34.8664 13.9792 35.5589C16.0874 36.282 18.3017 36.6471 20.5305 36.6391C22.7464 36.6476 24.9478 36.2824 27.0423 35.5589C29.0877 34.8627 30.9773 33.7732 32.6046 32.3517C34.2659 30.8902 35.6012 29.0956 36.5239 27.0845C37.5436 24.8121 38.0466 22.3418 37.9966 19.8516C38.04 17.3509 37.5331 14.8712 36.5117 12.5882C35.5984 10.5678 34.2667 8.76418 32.6046 7.29666C30.9774 5.87224 29.088 4.77872 27.0423 4.07729ZM26.884 34.5974C24.8769 35.4624 22.7098 35.8938 20.5245 35.8632C20.5255 35.8632 20.5265 35.8632 20.5275 35.8632H20.5214C20.5224 35.8632 20.5234 35.8632 20.5245 35.8632C18.3393 35.8948 16.1721 35.4644 14.1648 34.6004C12.3126 33.7989 10.6417 32.6308 9.25281 31.1666C7.86388 29.7024 6.78561 27.9722 6.08291 26.0803C5.33213 24.0797 4.95565 21.958 4.97226 19.8211C4.95656 17.6873 5.33303 15.5688 6.08291 13.5711C6.78561 11.6792 7.86388 9.94903 9.25281 8.4848C10.6417 7.02057 12.3126 5.85253 14.1648 5.05101C16.1724 4.18344 18.3406 3.74999 20.5275 3.77909C22.7175 3.74443 24.89 4.17376 26.9023 5.03884C28.7419 5.8423 30.3985 7.01226 31.7709 8.47729C33.1306 9.95548 34.189 11.6847 34.8868 13.568C35.6387 15.5663 36.0153 17.6862 35.9974 19.8211C36.0155 21.9581 35.639 24.0801 34.8868 26.0803C34.1822 27.9608 33.1176 29.6859 31.7526 31.1589C30.3794 32.623 28.723 33.7928 26.884 34.5974ZM26.8627 15.05C27.407 15.6762 27.8107 16.4119 28.0464 17.2074L28.0373 17.2044C28.5443 18.938 28.5443 20.7806 28.0373 22.5142C27.8001 23.3064 27.3965 24.0388 26.8536 24.6625C26.2843 25.2964 25.5762 25.7901 24.7844 26.1048C23.9507 26.4547 22.6544 26.6282 20.5244 26.6282V26.4456C23.0895 26.4456 24.3402 25.4171 25.2956 24.1817C26.0746 23.1776 26.458 21.7444 26.458 19.876C26.458 18.0077 26.0685 16.5806 25.2956 15.5734C24.5227 14.5662 23.3512 13.9972 21.7841 13.9972H16.3922V19.3405H19.6207C19.9111 19.3423 20.1953 19.2564 20.4361 19.094C20.6819 18.931 20.8727 18.6977 20.9839 18.4246V18.4002H21.1634V21.2636H20.9839V21.2392C20.8719 20.9666 20.6812 20.7335 20.4361 20.5698C20.1953 20.4074 19.9111 20.3215 19.6207 20.3233H16.3922V24.9729C16.397 25.2594 16.487 25.538 16.6508 25.7731C16.815 26.0189 17.0493 26.2097 17.3233 26.3208L17.6793 26.4547V26.6312H13.1637V26.4547L13.5227 26.3208C13.7953 26.2087 14.0283 26.0181 14.1922 25.7731C14.3502 25.5361 14.4349 25.2577 14.4356 24.9729V15.0531C14.4356 14.3775 14.3534 14.1067 14.1891 13.8603C14.0261 13.6145 13.7928 13.4237 13.5197 13.3125L13.1606 13.1787V12.9991H21.7841C22.8177 13 23.8408 13.2069 24.7935 13.6077C25.5853 13.9224 26.2935 14.4161 26.8627 15.05Z" fill="url(#paint0_linear_141_3709)"/>
<path d="M51.9631 29L53.4034 24.696H59.9659L61.4148 29H64.7898L58.6364 11.5455H54.733L48.5881 29H51.9631ZM54.2557 22.1562L56.6165 15.125H56.7528L59.1136 22.1562H54.2557ZM65.7524 33.9091H68.8376V26.9375H68.9655C69.4513 27.892 70.4655 29.2301 72.7155 29.2301C75.8007 29.2301 78.1104 26.7841 78.1104 22.4716C78.1104 18.108 75.7325 15.7386 72.707 15.7386C70.3973 15.7386 69.4342 17.1278 68.9655 18.0739H68.7865V15.9091H65.7524V33.9091ZM68.778 22.4545C68.778 19.9148 69.8689 18.2699 71.8547 18.2699C73.9087 18.2699 74.9655 20.017 74.9655 22.4545C74.9655 24.9091 73.8916 26.6989 71.8547 26.6989C69.8859 26.6989 68.778 24.9943 68.778 22.4545ZM79.5524 33.9091H82.6376V26.9375H82.7655C83.2513 27.892 84.2655 29.2301 86.5155 29.2301C89.6007 29.2301 91.9104 26.7841 91.9104 22.4716C91.9104 18.108 89.5325 15.7386 86.507 15.7386C84.1973 15.7386 83.2342 17.1278 82.7655 18.0739H82.5865V15.9091H79.5524V33.9091ZM82.578 22.4545C82.578 19.9148 83.6689 18.2699 85.6547 18.2699C87.7087 18.2699 88.7655 20.017 88.7655 22.4545C88.7655 24.9091 87.6916 26.6989 85.6547 26.6989C83.6859 26.6989 82.578 24.9943 82.578 22.4545Z" fill="white"/>
<defs>
<linearGradient id="paint0_linear_141_3709" x1="18.6316" y1="3" x2="18.6316" y2="36.6393" gradientUnits="userSpaceOnUse">
<stop stop-color="#FF7474"/>
<stop offset="1" stop-color="#FF4C8C"/>
</linearGradient>
</defs>
</svg>
