<svg
  viewBox="0 0 10 10"
  fill="none"
  xmlns="http://www.w3.org/2000/svg"
>
  <path
    d="M5 10C7.77085 10 10 7.77085 10 5C10 2.22915 7.77085 0 5 0C2.22915 0 0 2.22915 0 5C0 7.77085 2.22915 10 5 10Z"
    fill="#2775CA"
  />
  <path
    d="M6.37466 5.79169C6.37466 5.06254 5.93716 4.81254 5.06216 4.70839C4.43716 4.62504 4.31216 4.45839 4.31216 4.16669C4.31216 3.87499 4.52051 3.68754 4.93716 3.68754C5.31216 3.68754 5.52051 3.81254 5.62466 4.12504C5.64551 4.18754 5.70801 4.22919 5.77051 4.22919H6.10381C6.18716 4.22919 6.24966 4.16669 6.24966 4.08339V4.06254C6.16631 3.60419 5.79131 3.25004 5.31216 3.20839V2.70839C5.31216 2.62504 5.24966 2.56254 5.14551 2.54169H4.83301C4.74966 2.54169 4.68716 2.60419 4.66631 2.70839V3.18754C4.04131 3.27089 3.64551 3.68754 3.64551 4.20839C3.64551 4.89589 4.06216 5.16669 4.93716 5.27089C5.52051 5.37504 5.70801 5.50004 5.70801 5.83339C5.70801 6.16674 5.41631 6.39589 5.02051 6.39589C4.47881 6.39589 4.29131 6.16669 4.22881 5.85419C4.20801 5.77089 4.14551 5.72919 4.08301 5.72919H3.72881C3.64551 5.72919 3.58301 5.79169 3.58301 5.87504V5.89589C3.66631 6.41669 3.99966 6.79169 4.68716 6.89589V7.39589C4.68716 7.47919 4.74966 7.54169 4.85381 7.56254H5.16631C5.24966 7.56254 5.31216 7.50004 5.33301 7.39589V6.89589C5.95801 6.79169 6.37466 6.35419 6.37466 5.79169Z"
    fill="white"
  />
  <path
    d="M3.93791 7.9793C2.31291 7.396 1.47956 5.5835 2.08376 3.9793C2.39626 3.1043 3.08376 2.43765 3.93791 2.12515C4.02126 2.0835 4.06291 2.021 4.06291 1.9168V1.62515C4.06291 1.5418 4.02126 1.4793 3.93791 1.4585C3.91706 1.4585 3.87541 1.4585 3.85456 1.4793C1.87541 2.1043 0.792056 4.2085 1.41706 6.18765C1.79206 7.3543 2.68791 8.25015 3.85456 8.62515C3.93791 8.6668 4.02126 8.62515 4.04206 8.5418C4.06291 8.521 4.06291 8.50015 4.06291 8.4585V8.1668C4.06291 8.1043 4.00041 8.021 3.93791 7.9793ZM6.14626 1.4793C6.06291 1.43765 5.97956 1.4793 5.95876 1.56265C5.93791 1.5835 5.93791 1.6043 5.93791 1.646V1.93765C5.93791 2.021 6.00041 2.1043 6.06291 2.146C7.68791 2.7293 8.52126 4.5418 7.91706 6.146C7.60456 7.021 6.91706 7.68765 6.06291 8.00015C5.97956 8.0418 5.93791 8.1043 5.93791 8.2085V8.50015C5.93791 8.5835 5.97956 8.646 6.06291 8.6668C6.08376 8.6668 6.12541 8.6668 6.14626 8.646C8.12541 8.021 9.20876 5.9168 8.58376 3.93765C8.20876 2.75015 7.29206 1.8543 6.14626 1.4793Z"
    fill="white"
  />
  <path
    d="M5 0C7.76168 0 10 2.23877 10 5C10 7.76168 7.76168 10 5 10C2.23877 10 0 7.76145 0 5C0 2.23877 2.23877 0 5 0Z"
    fill="#F5AC37"
  />
  <path
    d="M5.18262 5.35307H7.08254C7.12304 5.35307 7.14217 5.35307 7.14509 5.29997C7.16062 5.10669 7.16062 4.91229 7.14509 4.71879C7.14509 4.68121 7.12642 4.66569 7.08569 4.66569H3.30453C3.25773 4.66569 3.24513 4.68121 3.24513 4.72509V5.28129C3.24513 5.35307 3.24513 5.35307 3.32005 5.35307H5.18262ZM6.93291 4.01566C6.93831 4.00148 6.93831 3.98596 6.93291 3.97201C6.90119 3.90293 6.86361 3.837 6.81996 3.77513C6.75426 3.66938 6.67686 3.57195 6.58866 3.48443C6.54703 3.43155 6.49888 3.38408 6.44488 3.3438C6.17443 3.11362 5.8529 2.95072 5.5073 2.86882C5.33292 2.82967 5.15472 2.81099 4.97607 2.81257H3.298C3.2512 2.81257 3.2449 2.83124 3.2449 2.87197V3.98123C3.2449 4.02803 3.2449 4.04063 3.3043 4.04063H6.91041C6.91041 4.04063 6.94169 4.03433 6.94799 4.01566H6.93269H6.93291ZM6.93291 6.0031C6.87981 5.99725 6.82626 5.99725 6.77316 6.0031H3.30768C3.26088 6.0031 3.24513 6.0031 3.24513 6.06565V7.15016C3.24513 7.20011 3.24513 7.21271 3.30768 7.21271H4.90767C4.98417 7.21856 5.06067 7.21316 5.1356 7.19719C5.3678 7.18054 5.59617 7.13014 5.81398 7.04711C5.89318 7.01966 5.96968 6.98389 6.0419 6.94091H6.06373C6.43881 6.74583 6.74346 6.43938 6.93561 6.06318C6.93561 6.06318 6.95744 6.01593 6.93291 6.00355V6.0031ZM2.61715 7.77499V7.75632V7.02821V6.78138V6.04698C2.61715 6.00625 2.61715 6.00018 2.56719 6.00018H1.88904C1.85146 6.00018 1.83594 6.00018 1.83594 5.95023V5.35644H2.56089C2.6014 5.35644 2.61715 5.35645 2.61715 5.30334V4.71586C2.61715 4.67829 2.61715 4.66906 2.56719 4.66906H1.88904C1.85146 4.66906 1.83594 4.66906 1.83594 4.61911V4.06921C1.83594 4.03478 1.83594 4.02556 1.88589 4.02556H2.55774C2.60455 4.02556 2.61715 4.02556 2.61715 3.96616V2.28179C2.61715 2.23184 2.61715 2.21924 2.6797 2.21924H5.02332C5.19342 2.22599 5.3624 2.24466 5.52957 2.27549C5.87405 2.33916 6.20503 2.46224 6.50766 2.63797C6.70836 2.75609 6.89309 2.89875 7.05756 3.063C7.18132 3.19147 7.29292 3.33052 7.39192 3.47858C7.49024 3.62865 7.57192 3.78908 7.63605 3.95671C7.64392 4.00036 7.68577 4.02983 7.72942 4.02241H8.28878C8.36055 4.02241 8.36055 4.02241 8.3637 4.09126V4.60381C8.3637 4.65376 8.34503 4.66636 8.29485 4.66636H7.86352C7.81987 4.66636 7.80727 4.66636 7.81042 4.72261C7.82752 4.91297 7.82752 5.10399 7.81042 5.29434C7.81042 5.34745 7.81042 5.35374 7.87005 5.35374H8.36348C8.3853 5.38187 8.36348 5.41 8.36348 5.43835C8.36663 5.47457 8.36663 5.51125 8.36348 5.54747V5.9257C8.36348 5.9788 8.34795 5.99455 8.30093 5.99455H7.7103C7.66912 5.98668 7.62907 6.013 7.61962 6.05395C7.47899 6.41958 7.25399 6.74741 6.96329 7.01021C6.85709 7.10584 6.74549 7.19584 6.62894 7.27886C6.50383 7.35086 6.38211 7.42579 6.25386 7.48519C6.01783 7.59139 5.77033 7.66969 5.5163 7.71942C5.2751 7.76262 5.03052 7.78219 4.78504 7.77882H2.61625V7.77567L2.61715 7.77499Z"
    fill="#FEFEFD"
  />
</svg>
