<svg height="185" width="600" xmlns="http://www.w3.org/2000/svg"><path d="m-1-1h602v187h-602z" fill="none"/><path d="m1.9000001 105.42501068 4.39999914-1.90002441 54.20000076-23.59997559 58.59999847 25.5-22 45.50000763-53.79999542 7.59997559-40.50000334-43.69998932z" fill="#133444"/><path d="m107 77.425c-9.7-11.7-23.4-19.2-38.4-21.2l-1-.1c-4.7-.6-9.4-.6-14.1 0l-1 .1c-15 2-28.7 9.6-38.4 21.2l-2.4 4-4.1 6.7-3 4.9c0 .1-.1.3-.2.4v.1l6.5 3.9 41.5 24.6 8 4.7v-58.7l-8 3.6v-8.8l8-3.6 8 3.6 40.8 18.6z" fill="#c42370"/><path d="m120.9 120.025c-.1 19.3-8.8 37.5-23.7 49.7-5.7 4.7-12.1 8.2-19.1 10.6-5.7 1.9-11.6 2.8-17.6 2.8-33.4 0-60.5-29.7-60.5-63.1 0-4.9.6-9.8 1.8-14.6l58.6 34.7 58.6-34.7c1.3 4.8 2 9.7 1.9 14.6z" fill="#1c4d6b"/><path d="m53.5 56.12499237 7 3.1000061-8 3.70001221v-7.30001831z"/><path d="m52.5 71.72499847 8-3.7000122v58.80002594l-8-4.80002594z"/><path d="m60.5 68.02498627v58.80002594l56.20000458-33.20001984z" fill="#1d4259"/><path d="m60.5.42499685v67.59998942l56.20000458 25.6000061z" fill="#4b6b9a"/><path d="m60.5 68.025v58.7l-8-4.7-48.1-28.4h-.1.1c0-.1.1-.3.2-.4l7-11.7 40.8-18.5v8.7z" fill="#343535"/><path d="m60.5 68.02498627v58.80002594l-8-4.80002594-48.0999999-28.3999939.10000038-.1000061 47.99999952-21.7999878z" fill="#3e5578"/><path d="m60.5.42499685v67.59998942l-56.0999999 25.6000061z" fill="#6db2d8"/><path d="m37.8 178.325c.8.4 1.7.7 2.5 1-.8-.3-1.6-.7-2.5-1z" fill="#335f8a"/><path d="m40.3 179.325c.8.3 1.7.7 2.6.9-.8-.2-1.7-.5-2.6-.9z" fill="#335f8a"/><path d="m45.2 180.925c.7.2 1.3.4 2 .5-.7-.1-1.4-.3-2-.5z" fill="#335f8a"/><path d="m1.9 105.425 58.6 34.7c-.8 5.3-2.2 10.4-4.2 15.4-4.7 11.4-14.1 23.4-32.5 14.2-14.9-12.2-23.6-30.4-23.7-49.7 0-4.9.6-9.8 1.8-14.6z" fill="#6db2d8"/><path d="m97.2 169.725-.2.1c-.3.2-.6.5-.9.7l-.1.1c-.3.3-.7.5-1 .8-.4.3-.7.6-1.1.8s-.8.5-1.1.8c-.4.3-.7.4-1 .7l-.2.1c-.4.2-.7.4-1 .7 0 0-.1 0-.1.1-.4.2-.7.4-1.1.7-.4.2-.8.4-1.2.7-.4.2-.8.4-1.2.6l-1.2.6c-.4.2-.8.4-1.2.6s-.8.4-1.2.6c-.8.4-1.7.7-2.5 1s-1.7.6-2.6.9c-.3.1-.7.2-1 .3l-1.2.4c-.7.2-1.3.4-2 .5-.2.1-.5.1-.8.2l-.4.1-1.1.2c-.4.1-.6.1-1 .2-.3.1-.6.1-.9.2-.3 0-.7.1-1 .2-.2 0-.3 0-.5.1l-.8.1h-.4c-.3 0-.6.1-.8.1-.3 0-.7.1-1 .1s-.5 0-.8 0-.5 0-.7 0c-.3 0-.6 0-.8 0s-.8 0-1.1 0h-2.4c-.4 0-.8 0-1.1 0s-.6 0-.8 0c-.2 0-.5 0-.7 0s-.5 0-.8 0-.7-.1-1-.1-.6 0-.8-.1h-.4c-.2 0-.5-.1-.8-.1-.2 0-.3 0-.5-.1-.3 0-.7-.1-1-.2-.3 0-.6-.1-.9-.2-.3 0-.7-.1-1-.2s-.7-.2-1.1-.2l-.4-.1c-.3 0-.6-.1-.8-.1-.7-.2-1.4-.4-2-.5l-1.2-.4c-.4-.1-.7-.2-1-.3-.9-.3-1.7-.6-2.6-.9s-1.7-.7-2.5-1c-.4-.2-.8-.4-1.2-.6l-1.2-.6-1.2-.6c-.4-.2-.8-.4-1.2-.6s-.8-.4-1.2-.7c-.4-.2-.7-.4-1.1-.7l-.1-.1c-.4-.2-.7-.4-1-.7l-.2-.1c-.3-.2-.7-.4-1-.7-.3-.2-.8-.5-1.1-.8-.4-.3-.8-.5-1.1-.8l-1-.8-.1-.1c-.3-.2-.6-.5-.9-.7l-.2-.1c18.3 9.1 27.8-2.9 32.5-14.2 2-4.9 3.4-10.1 4.2-15.4.8 5.3 2.2 10.4 4.2 15.4 4.1 11.2 13.6 23.2 31.9 14.1z" fill="#529bba"/><path d="m73.9 181.525c.7-.2 1.4-.4 2-.5-.6.1-1.3.3-2 .5z" fill="#335f8a"/><path d="m78.1 180.225c.9-.3 1.7-.6 2.6-.9-.8.4-1.7.7-2.6.9z" fill="#335f8a"/><path d="m80.7 179.325c.8-.3 1.7-.7 2.5-1-.8.3-1.6.7-2.5 1z" fill="#335f8a"/><path d="m120.9 120.025c-.1 19.3-8.8 37.5-23.7 49.7-18.3 9.1-27.8-2.9-32.5-14.2-2-4.9-3.4-10.1-4.2-15.4l58.6-34.7c1.2 4.8 1.8 9.7 1.8 14.6z" fill="#4b6b9a"/><g fill="#6db2d8"><path d="m185.6 181.325h-19.9v-132.7h19.9v9.4c7.9-7.9 16.7-11.7 26.6-11.7 11.8 0 21.6 4.3 29.2 13.1 7.8 8.7 11.6 19.5 11.6 32.7 0 12.9-3.9 23.6-11.6 32.1-7.3 8.3-17.8 13-28.9 12.8-10 0-19.1-4.1-27-12.1v56.4zm47.2-89.3c0-8.2-2.3-14.9-6.7-20.1-4.2-5.1-10.5-8-17.1-7.9-7.3 0-13.2 2.5-17.7 7.6s-6.8 11.7-6.8 20c0 8 2.3 14.7 6.8 20 4.5 5.2 10.4 7.7 17.6 7.7 6.5.1 12.8-2.7 17-7.8 4.6-5.2 6.9-11.7 6.9-19.5z"/><path d="m270 91.025c-.2-12 4.6-23.4 13.3-31.7 8.6-8.6 20.3-13.3 32.4-13.1 12.8 0 23.7 4.4 32.6 13.2s13.2 19.5 13.2 32.2c0 12.9-4.4 23.7-13.3 32.3-8.9 8.7-19.9 13-32.9 13s-23.7-4.4-32.3-13.2-13-19.6-13-32.7zm20.4.3c0 8.6 2.3 15.4 6.9 20.4 4.6 5.1 10.9 7.6 18.6 7.6s14-2.5 18.6-7.5 7-11.6 7-20-2.3-15-7-20c-4.6-5.1-10.9-7.6-18.6-7.6s-13.7 2.5-18.4 7.6c-4.8 5-7.1 11.5-7.1 19.5z"/><path d="m382.7 48.625h19.9v7.7c3.6-3.8 6.9-6.4 9.7-7.9 3.2-1.5 6.7-2.2 10.2-2.2 5.2 0 10.7 1.7 16.4 5.1l-9.1 18.2c-3.8-2.7-7.4-4.1-11-4.1-10.8 0-16.3 8.1-16.3 24.5v44.5h-19.9z"/><path d="m470.7 67.125v67.4h-19.9v-67.4h-8.5v-18.5h8.5v-31.5h19.9v31.5h15.4v18.5z"/><path d="m496.6 12.825c0-3.4 1.3-6.7 3.8-9 5.1-5.1 13.3-5.1 18.3 0 2.5 2.4 3.9 5.7 3.8 9.1.1 3.5-1.3 6.8-3.8 9.2-2.4 2.5-5.7 3.9-9.1 3.8-3.5.1-6.8-1.3-9.2-3.8-2.5-2.4-3.9-5.8-3.8-9.3zm22.9 35.8v85.9h-19.9v-85.9z"/><path d="m594.5 63.225-16.5 8.8c-2.6-5.3-5.8-7.9-9.6-7.9-1.7 0-3.4.6-4.7 1.8s-2 2.9-1.9 4.6c0 3.3 3.8 6.6 11.5 9.8 10.6 4.5 17.6 8.7 21.2 12.6s5.5 8.9 5.5 15.4c.2 7.9-3.2 15.6-9.2 20.8-5.9 5.3-13.6 8.1-21.5 7.9-14.4 0-24.6-7-30.6-21l17-7.9c2.3 4.2 4.2 6.8 5.4 7.9 2.3 2.2 5.5 3.4 8.7 3.3 6.7 0 10-3.1 10-9.2 0-3.5-2.6-6.9-7.8-9.8-2-1-4-2-6-2.9s-4.1-1.9-6.1-2.9c-5.8-2.8-9.8-5.6-12.2-8.5-3-3.6-4.5-8.2-4.5-13.8 0-7.5 2.5-13.6 7.7-18.5 5.1-4.8 12-7.5 19.1-7.3 11-.2 19.1 5.5 24.5 16.8z"/></g></svg>