<svg xmlns="http://www.w3.org/2000/svg" width="14.8" height="17.3" viewBox="0 0 14.8 17.3"><linearGradient id="prefix__a" gradientUnits="userSpaceOnUse" x1=".458" y1="10.718" x2="14.767" y2="10.718" gradientTransform="matrix(1 0 0 -1 0 19.44)"><stop offset="0" stop-color="#ff9574"/><stop offset="1" stop-color="#ff4c8c"/></linearGradient><path d="M8.9.3l.3 3c.7-.1 2.4-.1 3.6.8l1.4-3C13.5.7 11.5 0 8.9.3zm-1 .1l.3 3c-.5.2-1.5.6-2.1 1.2l-2.3-2c.5-.5 2-1.7 4.1-2.2zM5.4 5.3l-2.3-2C2 4.2 1.3 5.9 1 6.6l3.2.6c.2-.6.8-1.6 1.2-1.9zM4 8.2L.7 7.6c-.5 1.7-.2 3.7 0 4.5l2.9-.7.3-1.1.1-2.1zm-.1 5.6l1-3.4V9.2c2.1.2 6.9.1 9.5-1.6.3.5.4.9.3 4.2h-1v-.9H8.1c-.3 1-1.4 3.1-4.2 2.9zm7.7-2H9.4c-.3 4.1 3 5.3 4.6 5.4v-2.8l-2.4-1.7v-.9zM5 8.2c2.1.1 6.8 0 9-1.5-.5-.9-2.3-2.7-4.8-2.4C6.1 4.8 5 7.6 5 8.2z" fill-rule="evenodd" clip-rule="evenodd" fill="url(#prefix__a)"/></svg>