<svg fill="none" height="256" viewBox="0 0 256 256" width="256" xmlns="http://www.w3.org/2000/svg" xmlns:xlink="http://www.w3.org/1999/xlink"><linearGradient id="a"><stop offset="0" stop-color="#f1a17c" stop-opacity=".94"/><stop offset="1" stop-color="#eb5b8b" stop-opacity=".36"/></linearGradient><linearGradient id="b" gradientUnits="userSpaceOnUse" x1="77.938" x2="279.993" xlink:href="#a" y1="-33.716" y2="247.423"/><linearGradient id="c" gradientUnits="userSpaceOnUse" x1="-72660.5" x2="-71493.6" xlink:href="#a" y1="23078.1" y2="27758.5"/><linearGradient id="d" gradientUnits="userSpaceOnUse" x1="-75550.5" x2="-71186.6" xlink:href="#a" y1="50074.6" y2="58421.8"/><linearGradient id="e" gradientUnits="userSpaceOnUse" x1="-74289.1" x2="-71208.2" xlink:href="#a" y1="40104.5" y2="47351.7"/><linearGradient id="f" gradientUnits="userSpaceOnUse" x1="-69034.4" x2="-62719.2" xlink:href="#a" y1="63315.7" y2="72018"/><linearGradient id="g" gradientUnits="userSpaceOnUse" x1="-71469" x2="-66216.2" xlink:href="#a" y1="55733.8" y2="64261.2"/><linearGradient id="h" gradientUnits="userSpaceOnUse" x1="-55192" x2="-47857.5" xlink:href="#a" y1="70664" y2="77885.8"/><linearGradient id="i" gradientUnits="userSpaceOnUse" x1="-61439.2" x2="-54613.8" xlink:href="#a" y1="66202.9" y2="74199.9"/><linearGradient id="j" gradientUnits="userSpaceOnUse" x1="-35447" x2="-28866.1" xlink:href="#a" y1="71015.9" y2="75149.6"/><linearGradient id="k" gradientUnits="userSpaceOnUse" x1="-44812.80000000001" x2="-37731.4" xlink:href="#a" y1="70098.8" y2="75802.2"/><linearGradient id="l" gradientUnits="userSpaceOnUse" x1="-37403.9" x2="-30683.9" xlink:href="#a" y1="71695.2" y2="76102.4"/><linearGradient id="m" gradientUnits="userSpaceOnUse" x1="-26790.6" x2="-21179.9" xlink:href="#a" y1="69850.8" y2="72558.3"/><linearGradient id="n" gradientUnits="userSpaceOnUse" x1="-57774.2" x2="-50471.6" xlink:href="#a" y1="71720.4" y2="79114.6"/><linearGradient id="o" gradientUnits="userSpaceOnUse" x1="-46375.5" x2="-39277.5" xlink:href="#a" y1="70847.2" y2="76689.1"/><linearGradient id="p" gradientUnits="userSpaceOnUse" x1="-72204.1" x2="-65986.1" xlink:href="#a" y1="64662.5" y2="73398.3"/><linearGradient id="q" gradientUnits="userSpaceOnUse" x1="-63866.3" x2="-57111.6" xlink:href="#a" y1="67338.8" y2="75396.7"/><linearGradient id="r" gradientUnits="userSpaceOnUse" x1="-79344.5" x2="-75149.6" xlink:href="#a" y1="50899.8" y2="59148"/><linearGradient id="s" gradientUnits="userSpaceOnUse" x1="-74858.8" x2="-69722.4" xlink:href="#a" y1="56934.7" y2="65444"/><linearGradient id="t" gradientUnits="userSpaceOnUse" x1="-78356" x2="-76424.7" xlink:href="#a" y1="32189.5" y2="38150.6"/><linearGradient id="u" gradientUnits="userSpaceOnUse" x1="-77922.6" x2="-74926.7" xlink:href="#a" y1="41179.4" y2="48347.4"/><linearGradient id="v" gradientUnits="userSpaceOnUse" x1="-77683.4" x2="-75586.9" xlink:href="#a" y1="33427" y2="39620"/><linearGradient id="w" gradientUnits="userSpaceOnUse" x1="-76395.9" x2="-75229.3" xlink:href="#a" y1="24238.4" y2="28918.9"/><linearGradient id="x" gradientUnits="userSpaceOnUse" x1="-76392.4" x2="-72024.8" xlink:href="#a" y1="50820.9" y2="59169.1"/><linearGradient id="y" gradientUnits="userSpaceOnUse" x1="-76165.9" x2="-73085" xlink:href="#a" y1="41155.9" y2="48403.1"/><linearGradient id="z" gradientUnits="userSpaceOnUse" x1="-67805.9" x2="-61491.3" xlink:href="#a" y1="62704.3" y2="71408.6"/><linearGradient id="A" gradientUnits="userSpaceOnUse" x1="-71235.1" x2="-65981.6" xlink:href="#a" y1="55877" y2="64403.2"/><linearGradient id="B" gradientUnits="userSpaceOnUse" x1="-52710.5" x2="-45378.3" xlink:href="#a" y1="68453.5" y2="75675.4"/><linearGradient id="C" gradientUnits="userSpaceOnUse" x1="-59522.4" x2="-52696.2" xlink:href="#a" y1="64903.1" y2="72895.2"/><linearGradient id="D" gradientUnits="userSpaceOnUse" x1="-33011.7" x2="-26430.7" xlink:href="#a" y1="67556.4" y2="71690.2"/><linearGradient id="E" gradientUnits="userSpaceOnUse" x1="-42346" x2="-35264.7" xlink:href="#a" y1="67384" y2="73087.4"/><linearGradient id="F" gradientUnits="userSpaceOnUse" x1="-34297.6" x2="-27576.4" xlink:href="#a" y1="67300.3" y2="71707"/><linearGradient id="G" gradientUnits="userSpaceOnUse" x1="-24745.6" x2="-19135" xlink:href="#a" y1="66098.1" y2="68805.5"/><linearGradient id="H" gradientUnits="userSpaceOnUse" x1="-52704" x2="-45399.2" xlink:href="#a" y1="66831.1" y2="74225.3"/><linearGradient id="I" gradientUnits="userSpaceOnUse" x1="-42515.9" x2="-35417.80000000001" xlink:href="#a" y1="66353" y2="72195"/><linearGradient id="J" gradientUnits="userSpaceOnUse" x1="-65970.1" x2="-59754.1" xlink:href="#a" y1="60168.2" y2="68901.2"/><linearGradient id="K" gradientUnits="userSpaceOnUse" x1="-58427.1" x2="-51670" xlink:href="#a" y1="62817.9" y2="70876.3"/><linearGradient id="L" gradientUnits="userSpaceOnUse" x1="-73221.2" x2="-69028.6" xlink:href="#a" y1="47614.9" y2="55860.1"/><linearGradient id="M" gradientUnits="userSpaceOnUse" x1="-68888.8" x2="-63735.9" xlink:href="#a" y1="53340.5" y2="61858.5"/><linearGradient id="N" gradientUnits="userSpaceOnUse" x1="-73609.3" x2="-71673.2" xlink:href="#a" y1="30463.4" y2="36431"/><linearGradient id="O" gradientUnits="userSpaceOnUse" x1="-72751.2" x2="-69775.8" xlink:href="#a" y1="38651.9" y2="45804.6"/><g opacity=".4"><path d="m122.306 2.67626.484 6.25861c-2.549.10537-5.082.29141-7.596.55833l.274 2.592c3.224-.3371 6.49-.5585 9.788-.6323l-.748-11.4529c-6.008.207013-11.994.840838-17.912 1.89658-5.946.98967-11.8156 2.39801-17.5638 4.21451l3.0871 10.95781c3.3224-1.0607 6.6975-1.9844 10.1257-2.7711l-.569-2.5498c-2.7398.6181-5.4407 1.3205-8.1028 2.1072l-1.6013-5.96341c4.9269-1.48336 9.9371-2.67603 15.0031-3.57181 5.073-.85061 10.193-1.39953 15.331-1.64372z" fill="url(#b)" opacity=".35"/><path d="m133.42 7.35523c2.929.14048 5.834.37571 8.714.70585 0 .45306-.58 5.26812-.653 5.80552h-.116c-.822-.0948-1.644-.1791-2.476-.2529-3.572-.3371-7.186-.5162-10.853-.5162h-.063-.727-1.549c-4.228.0827-8.449.3958-12.643.9377-.064-.4847-.643-5.34192-.706-5.81605 2.539-.31609 5.089-.56891 7.67-.73749l-.284-2.68681c-3.435.2318-6.828.59003-10.178 1.05363.084.73754 1.232 10.15702 1.348 10.97882 4.433-.6697 8.901-1.0779 13.381-1.2222 1.258-.0422 2.511-.0633 3.762-.0633h1.053c4.879.0355 9.75.3875 14.583 1.0536.115-.8113 1.19-10.12527 1.285-10.99978-3.688-.4952-7.375-.8429-11.221-1.05363z" fill="url(#c)" opacity=".35"/><path d="m83.8583 10.568 2.3918 5.795c-2.3952.8991-4.7412 1.8614-7.0382 2.8869l1.0537 2.3812c2.9642-1.3276 6.002-2.5357 9.1138-3.6244l-4.2146-10.66271c-5.6637 2.06593-11.1738 4.53061-16.4891 7.37541-5.3484 2.7723-10.4958 5.9162-15.4042 9.4088l6.3218 9.4827c2.8096-2.0441 5.7353-3.9652 8.7768-5.7634l-1.3382-2.2336c-2.4128 1.4224-4.7623 2.9396-7.0381 4.5201l-3.3821-5.1734c4.2307-2.9381 8.6321-5.6225 13.1809-8.0392 4.5607-2.3903 9.2572-4.5118 14.0657-6.3534z" fill="url(#d)" opacity=".35"/><path d="m95.8696 11.5895c2.8097-.7867 5.6444-1.4645 8.5024-2.03347.095.45307 1.054 5.14167 1.18 5.73167h-.115l-2.424.5163c-3.5084.7902-7.0064 1.7386-10.536 2.8765h-.0633l-.6953.2001-1.4647.5268c-3.9978 1.3845-7.9161 2.9885-11.7373 4.8046-.2107-.4425-2.2654-4.8783-2.4655-5.2681 2.3074-1.0536 4.6675-2.1073 7.0592-3.0766l-1.0536-2.4655c-3.196 1.2784-6.3111 2.6832-9.3456 4.2145.3056.6743 4.3093 9.2825 4.6781 10.0306 4.0082-1.9991 8.1316-3.7582 12.3485-5.2682 1.18-.4214 2.3602-.8429 3.5614-1.2328l.9587-.295c4.6551-1.4666 9.3994-2.635 14.2024-3.498-.147-.8008-1.991-9.99897-2.17-10.85241-3.667.66027-7.3298 1.49615-10.9894 2.50764z" fill="url(#e)" opacity=".35"/><path d="m49.7317 29.9549 4.0668 4.7729c-1.9913 1.591-3.9298 3.2241-5.8052 4.9204l1.7384 1.9388c2.4093-2.1705 4.9238-4.2778 7.5439-6.3218l-7.3754-8.8294c-4.7457 3.7124-9.2241 7.7542-13.4022 12.0956-4.2328 4.2812-8.155 8.8585-11.7373 13.6972l8.9348 7.0382c2.1072-2.8027 4.2145-5.542 6.5641-8.1866l-1.9599-1.7175c-1.8544 2.1073-3.6139 4.2145-5.2681 6.4798l-4.8044-3.8879c3.1161-4.0942 6.4686-8.0028 10.0409-11.7058 3.6162-3.6528 7.4441-7.0901 11.4636-10.2939z" fill="url(#f)" opacity=".35"/><path d="m61.4681 27.2142c2.4514-1.6226 4.9416-3.1434 7.4703-4.5623l2.8975 5.0891h-.1055l-2.1072 1.2432c-3.0836 1.8333-6.1109 3.8212-9.0822 5.9636h-.0527l-.5901.4109-1.2327.9483c-3.3745 2.554-6.6069 5.2905-9.6827 8.1973-.3372-.3477-3.6562-3.9407-3.9828-4.2883 1.8544-1.7491 3.7825-3.4454 5.7633-5.0996l-1.8016-2.0124c-2.6411 2.2056-5.1768 4.4955-7.6072 6.8696.5057.5479 6.9749 7.4913 7.5544 8.0918 3.1963-3.148 6.5738-6.1066 10.115-8.8609.9798-.7586 1.9806-1.5172 2.9921-2.2653l.8219-.5796c3.9772-2.8308 8.1298-5.4068 12.4328-7.7125-.3793-.7164-4.9835-8.8926-5.426-9.6513-3.2768 1.7596-6.5117 3.6877-9.6725 5.7739z" fill="url(#g)" opacity=".35"/><path d="m23.2752 58.9295 5.342 3.2873c-1.4048 2.1072-2.743 4.2672-4.0144 6.4798l2.2655 1.3065c1.6085-2.8097 3.3646-5.5737 5.2681-8.2921l-9.7144-6.1321c-3.3696 4.9955-6.38 10.2242-9.0086 15.6464-2.7019 5.3854-5.01875 10.9554-6.93293 16.6684l10.68393 3.9405c1.0747-3.3084 2.3107-6.578 3.7085-9.8092l-2.3915-1.0536c-1.1168 2.5708-2.1319 5.1697-3.0451 7.7967l-5.77385-2.202c1.69975-4.8608 3.68395-9.6174 5.94235-14.2451 2.2932-4.6097 4.8544-9.0812 7.6704-13.3915z" fill="url(#h)" opacity=".35"/><path d="m33.6407 52.7032c1.8263-2.2969 3.7192-4.513 5.6789-6.6483.3477.3161 3.888 3.5402 4.32 3.9511l-.0738.0842c-.5584.6111-1.1167 1.2222-1.6646 1.8439-2.3671 2.6973-4.6326 5.5246-6.7961 8.4817l-.4424.5795c-.295.4319-.5901.8535-.8746 1.2855-2.4189 3.4737-4.6487 7.0753-6.6798 10.7891l-5.1102-2.8554c1.2222-2.2337 2.5251-4.4462 3.9089-6.6378l-2.3391-1.3486c-1.8333 2.908-3.54 5.8793-5.1099 8.8821.6533.3688 8.9558 4.9731 9.6828 5.3629 2.0656-3.9941 4.3629-7.864 6.8802-11.5899.7059-1.0536 1.4119-2.1073 2.1073-3.0872.2002-.2634.4107-.5268.6109-.8007 2.9181-3.9257 6.0855-7.6597 9.4826-11.179-.59-.569-7.4912-6.9118-8.1339-7.5018-2.5779 2.6902-5.0364 5.4999-7.3754 8.429z" fill="url(#i)" opacity=".35"/><path d="m7.05848 94.6793 6.09002 1.4644c-.7024 2.4655-1.303 4.9243-1.8017 7.3753l2.5497.548c.6603-3.175 1.4646-6.3358 2.4129-9.4826l-11.12641-2.8237c-1.66315 5.7904-2.91313 11.6913-3.74043 17.6593-.904453 5.957-1.3831658 11.97-1.43279438 17.995l11.36873438.454c0-3.488.1685-6.975.4951-10.537l-2.6024-.242c-.25287 2.81-.41465 5.595-.48489 8.355l-6.16357-.316c.11202-5.144.5271-10.277 1.24321-15.372.76449-5.085 1.83057-10.1196 3.19253-15.0777z" fill="url(#j)" opacity=".35"/><path d="m14.9416 85.5535c1.0326-2.7464 2.1494-5.4367 3.3505-8.0708l5.3314 2.4128v.1159c-.3371.7481-.6743 1.5067-1.0536 2.2654-1.4048 3.2943-2.6866 6.6835-3.8456 10.1675.0045.0208.0045.0423 0 .0631l-.2318.6744c-.158.5057-.3057 1.0537-.4427 1.4962-1.2298 4.0507-2.2357 8.166-3.0132 12.327l-5.74251-1.127c.47764-2.508 1.03261-5.015 1.66481-7.5229l-2.64461-.569c-.84291 3.3369-1.54532 6.6799-2.10726 10.0309.727.147 10.04117 1.959 10.86297 2.107.7267-4.425 1.7189-8.802 2.9713-13.1072.3477-1.2012.7059-2.4022 1.0536-3.5928.1054-.3267.2211-.6428.3265-.9589 1.5472-4.6305 3.3914-9.1564 5.521-13.5496-.7376-.3582-9.2612-4.2145-10.062-4.6149-1.6226 3.3505-3.1014 6.8029-4.436 10.3571z" fill="url(#k)" opacity=".35"/><path d="m2.67626 133.674 6.25848-.474c.10537 2.549.29154 5.078.55846 7.586l2.6024-.264c-.3477-3.224-.569-6.49-.6428-9.788l-11.4528.748c.207509 6.008.84133 11.994 1.89658 17.912.99319 5.942 2.40148 11.808 4.21451 17.553l10.95761-3.087c-1.0677-3.308-1.9915-6.68-2.7712-10.115l-2.5497.58c.6252 2.739 1.3276 5.44 2.1073 8.102l-5.96344 1.602c-1.48406-4.931-2.67687-9.944-3.57194-15.014-.84529-5.078-1.39391-10.2-1.64346-15.341z" fill="url(#l)" opacity=".35"/><path d="m7.3659 122.569c.12644-2.93.35814-5.834.6953-8.714l5.8055.653c.0052.039.0052.078 0 .116-.0948.822-.1791 1.644-.2529 2.476-.3371 3.572-.5162 7.186-.5162 10.853v.063.727 1.549c.0827 4.228.3957 8.449.9376 12.643l-5.80551.695c-.32662-2.528-.57945-5.088-.74803-7.659l-2.68655.274c.2318 3.434.59003 6.838 1.05363 10.188.73754-.084 10.15686-1.233 10.97876-1.348-.6702-4.436-1.0785-8.908-1.2224-13.392 0-1.243-.063-2.497-.063-3.751 0-.337 0-.674 0-1.054.0359-4.882.3879-9.756 1.0536-14.592-.8113-.106-10.12557-1.191-11.00008-1.286-.4952 3.698-.8429 7.439-1.05363 11.232z" fill="url(#m)" opacity=".35"/><path d="m10.5679 172.121 5.795-2.392c.8991 2.402 1.8614 4.752 2.8869 7.049l2.3812-1.054c-1.317-2.961-2.5394-5.995-3.6247-9.114l-10.66255 4.215c2.06823 5.662 4.53275 11.173 7.37535 16.489 2.7674 5.348 5.9115 10.492 9.4089 15.393l9.4826-6.321c-2.044-2.81-3.9651-5.732-5.7633-8.767l-2.2338 1.328c1.4048 2.409 2.9116 4.759 4.5201 7.049l-5.1732 3.371c-2.9396-4.226-5.6243-8.624-8.0393-13.17-2.3916-4.564-4.5128-9.264-6.3532-14.076z" fill="url(#n)" opacity=".35"/><path d="m11.5901 160.076c-.7867-2.81-1.4647-5.644-2.03371-8.503l5.73191-1.169c.006.038.006.077 0 .115.1686.812.3372 1.613.5268 2.424.7797 3.512 1.735 7.006 2.8659 10.483-.0046.021-.0046.043 0 .064.0632.231.1369.463.2001.695.1791.495.3477.98.5268 1.465 1.3845 3.997 2.9885 7.916 4.8046 11.737l-5.2681 2.466c-1.0958-2.304-2.1215-4.661-3.0768-7.07l-2.4653 1.053c1.2784 3.196 2.6832 6.311 4.2145 9.346l10.0306-4.678c-2.001-4.011-3.7602-8.138-5.2682-12.359-.4214-1.17-.8431-2.35-1.2224-3.551-.1053-.316-.1999-.643-.3053-.959-1.4653-4.655-2.6337-9.399-3.4981-14.203-.8008.137-9.98845 1.992-10.85242 2.171.66729 3.667 1.50331 7.33 2.50776 10.989z" fill="url(#o)" opacity=".35"/><path d="m29.9548 206.248 4.7729-4.067c1.5875 2.001 3.2276 3.94 4.9204 5.816l1.9387-1.749c-2.1704-2.403-4.2601-4.914-6.269-7.534l-8.8295 7.376c3.7109 4.75 7.7528 9.232 12.0956 13.412 4.2812 4.233 8.8585 8.156 13.6972 11.738l7.0487-8.935c-2.8132-2.055-5.5524-4.215-8.1865-6.564l-1.7175 1.96c2.1072 1.847 4.2671 3.603 6.4797 5.268l-3.8878 4.804c-4.0943-3.116-8.0028-6.469-11.7057-10.041-3.6736-3.623-7.132-7.457-10.3572-11.484z" fill="url(#p)" opacity=".35"/><path d="m27.2163 194.509c-1.6226-2.444-3.1431-4.931-4.562-7.459l5.0888-2.887c.0019.035.0019.07 0 .105.411.716.8221 1.433 1.2435 2.107 1.8333 3.087 3.8141 6.122 5.974 9.082v.053l.4108.59c.3161.422.6323.833.959 1.233 2.553 3.372 5.2859 6.604 8.1867 9.683l-4.2884 3.983c-1.749-1.855-3.4454-3.783-5.0996-5.764l-2.0123 1.802c2.2055 2.641 4.4955 5.173 6.8696 7.596.5479-.495 7.4913-6.964 8.0918-7.543-3.148-3.197-6.1066-6.574-8.8609-10.115-.7586-.98-1.5174-1.981-2.2549-3.003-.2002-.264-.3897-.548-.5898-.822-2.8308-3.974-5.4069-8.123-7.7127-12.422-.7164.379-8.8925 4.983-9.6511 5.415 1.7701 3.288 3.6947 6.515 5.7738 9.683z" fill="url(#q)" opacity=".35"/><path d="m58.9286 232.716 3.2874-5.342c2.1073 1.405 4.2671 2.739 6.4797 4.004l1.3065-2.255c-2.8096-1.616-5.5738-3.372-8.2921-5.268l-6.132 9.714c5.0004 3.362 10.2283 6.372 15.6462 9.009 5.3854 2.702 10.9555 5.018 16.6685 6.932l3.9406-10.683c-3.3084-1.089-6.5783-2.325-9.8094-3.709l-1.0536 2.392c2.5708 1.103 5.17 2.117 7.797 3.045l-2.2022 5.763c-4.8609-1.695-9.6175-3.676-14.245-5.932-4.6098-2.293-9.0813-4.854-13.3916-7.67z" fill="url(#r)" opacity=".35"/><path d="m52.7022 222.401c-2.2969-1.823-4.5096-3.73-6.6485-5.69l3.9406-4.319.0843.084c.6111.558 1.2222 1.117 1.8439 1.665 2.6973 2.374 5.507 4.636 8.429 6.785h.0525l.5795.442 1.2854.875c3.4738 2.419 7.0754 4.649 10.7892 6.68-.2424.422-2.6235 4.689-2.8553 5.11-2.2337-1.233-4.4464-2.529-6.6379-3.909l-1.3484 2.339c2.922 1.833 5.8826 3.533 8.882 5.1.3687-.643 4.9729-8.945 5.3628-9.683-3.9962-2.058-7.8663-4.352-11.5899-6.87-1.0537-.706-2.1072-1.411-3.0766-2.107-.2739-.19-.5373-.4-.8113-.601-3.9241-2.901-7.6579-6.05-11.1788-9.429-.569.579-6.9119 7.48-7.502 8.134 2.6833 2.577 5.4929 5.036 8.4291 7.375z" fill="url(#s)" opacity=".35"/><path d="m94.6793 248.93 1.4752-6.09c2.455.674 4.9205 1.285 7.3755 1.801l.537-2.549c-3.175-.668-6.3355-1.472-9.4824-2.413l-2.8239 11.126c5.7919 1.657 11.6923 2.907 17.6593 3.74 5.958.891 11.971 1.363 17.996 1.412l.453-11.368c-3.512 0-7.024-.166-10.537-.496l-.242 2.603c2.792.253 5.584.411 8.355.474l-.316 6.174c-5.144-.112-10.277-.527-15.372-1.243-5.083-.764-10.1177-1.823-15.0777-3.171z" fill="url(#t)" opacity=".35"/><path d="m85.5534 241.05c-2.7534-1.032-5.4436-2.153-8.0706-3.361l2.4125-5.268h.1161c.748.347 1.5065.685 2.2651 1.053 3.3014 1.405 6.6907 2.687 10.1677 3.846h.0633l.6847.243c.4952.158.9904.294 1.4856.442 4.0521 1.225 8.1672 2.231 12.3272 3.013-.095.475-1.053 5.269-1.127 5.743-2.508-.471-5.015-1.026-7.523-1.665l-.5584 2.644c3.3294.843 6.6804 1.549 10.0204 2.108.147-.727 1.959-10.041 2.107-10.863-4.41-.763-8.772-1.779-13.0652-3.045-1.2011-.348-2.4021-.706-3.5927-1.054l-.959-.326c-4.6305-1.548-9.1563-3.392-13.5495-5.521-.3477.737-4.2146 9.261-4.615 10.062 3.3505 1.612 6.8065 3.097 10.3572 4.425z" fill="url(#u)" opacity=".35"/><path d="m133.674 253.313-.474-6.259c2.55-.105 5.078-.295 7.586-.569l-.264-2.592c-3.224.348-6.49.569-9.788.643l.748 11.453c6.008-.214 11.993-.848 17.912-1.896 5.944-.984 11.811-2.392 17.554-4.215l-3.088-10.947c-3.308 1.068-6.68 1.988-10.114 2.76l.579 2.54c2.74-.611 5.437-1.328 8.102-2.108l1.602 5.964c-4.927 1.483-9.937 2.676-15.004 3.572-5.08.848-10.206 1.401-15.351 1.654z" fill="url(#v)" opacity=".35"/><path d="m122.568 248.583c-2.929-.126-5.834-.358-8.713-.695 0-.464.579-5.268.653-5.816h.116c.821.084 1.643.179 2.476.253 3.571.337 7.185.516 10.852.516h.79 1.549c4.229-.083 8.449-.396 12.644-.938 0 .474.642 5.331.695 5.805-2.529.331-5.082.577-7.66.738l.285 2.687c3.435-.222 6.827-.59 10.178-1.054-.085-.737-1.233-10.157-1.349-10.989-4.435.675-8.907 1.083-13.391 1.222-1.244 0-2.498.074-3.751.074h-1.054c-4.882-.036-9.756-.388-14.593-1.054-.105.811-1.19 10.125-1.285 10.989 3.698.506 7.438.854 11.231 1.054z" fill="url(#w)" opacity=".35"/><path d="m172.122 245.422-2.381-5.805c2.388-.885 4.734-1.844 7.038-2.876l-1.054-2.392c-2.96 1.327-5.995 2.549-9.114 3.635l4.215 10.663c5.663-2.069 11.173-4.533 16.489-7.376 5.352-2.763 10.497-5.911 15.394-9.419l-6.322-9.483c-2.81 2.044-5.735 3.965-8.777 5.763l1.328 2.245c2.423-1.433 4.762-2.94 7.048-4.521l3.372 5.174c-4.229 2.935-8.627 5.619-13.17 8.039-4.56 2.391-9.257 4.513-14.066 6.353z" fill="url(#x)" opacity=".35"/><path d="m160.077 244.368c-2.81.779-5.647 1.457-8.513 2.033-.084-.453-1.054-5.152-1.17-5.732h.116c.811-.158 1.623-.326 2.423-.516 3.513-.78 7.025-1.735 10.537-2.866h.063l.695-.21 1.465-.517c3.996-1.389 7.914-2.993 11.737-4.804.211.442 2.255 4.878 2.466 5.268-2.308 1.053-4.668 2.107-7.07 3.066l1.106 2.476c3.189-1.279 6.305-2.683 9.346-4.215-.306-.674-4.32-9.282-4.678-10.03-4.013 1.996-8.14 3.755-12.359 5.268-1.17.421-2.35.832-3.551 1.222l-.959.306c-4.655 1.466-9.399 2.635-14.203 3.498.137.801 1.992 9.988 2.171 10.852 3.666-.667 7.33-1.503 10.989-2.508z" fill="url(#y)" opacity=".35"/><path d="m206.247 226.036-4.056-4.773c1.988-1.595 3.923-3.235 5.805-4.921l-1.749-1.938c-2.402 2.17-4.913 4.278-7.533 6.322l7.375 8.818c4.755-3.701 9.238-7.74 13.413-12.085 4.23-4.284 8.152-8.861 11.737-13.697l-8.934-7.049c-2.058 2.81-4.247 5.539-6.565 8.187l1.96 1.717c1.847-2.107 3.604-4.267 5.268-6.479l4.805 3.888c-3.116 4.094-6.469 8.002-10.041 11.705-3.624 3.656-7.459 7.097-11.485 10.305z" fill="url(#z)" opacity=".35"/><path d="m194.509 228.774c-2.444 1.623-4.931 3.144-7.46 4.563l-2.887-5.089.106-.064c.716-.4 1.433-.811 2.107-1.243 3.084-1.826 6.111-3.814 9.082-5.963h.053l.59-.411 1.233-.959c3.375-2.554 6.607-5.29 9.683-8.197.337.358 3.656 3.951 3.982 4.288-1.854 1.76-3.782 3.456-5.763 5.11l1.802 2.013c2.648-2.213 5.18-4.503 7.596-6.87-.495-.548-6.964-7.502-7.544-8.092-3.196 3.145-6.573 6.1-10.114 8.85-.98.77-1.981 1.528-2.993 2.266l-.822.579c-3.974 2.838-8.127 5.418-12.432 7.723.379.717 4.983 8.882 5.426 9.652 3.277-1.771 6.511-3.688 9.672-5.785z" fill="url(#A)" opacity=".35"/><path d="m232.715 197.05-5.341-3.287c1.411-2.107 2.75-4.278 4.003-6.469l-2.254-1.307c-1.609 2.81-3.365 5.574-5.269 8.292l9.715 6.122c3.366-4.994 6.377-10.219 9.008-15.636 2.702-5.385 5.019-10.955 6.933-16.668l-10.683-3.941c-1.089 3.302-2.326 6.571-3.709 9.809l2.391 1.054c1.054-2.571 2.108-5.184 3.045-7.807l5.764 2.212c-1.696 4.861-3.676 9.618-5.932 14.245-2.292 4.607-4.853 9.076-7.671 13.381z" fill="url(#B)" opacity=".35"/><path d="m222.4 203.277c-1.827 2.297-3.72 4.509-5.679 6.638-.348-.306-3.888-3.541-4.331-3.941l.084-.095c.559-.6 1.117-1.222 1.665-1.844 2.371-2.697 4.636-5.51 6.786-8.481l.442-.569.875-1.286c2.419-3.474 4.648-7.075 6.68-10.789.421.242 4.688 2.624 5.11 2.845-1.223 2.248-2.526 4.46-3.909 6.638l2.339 1.359c1.833-2.915 3.533-5.876 5.099-8.882-.642-.369-8.945-4.973-9.683-5.363-2.057 3.996-4.351 7.866-6.869 11.59-.706 1.053-1.412 2.107-2.107 3.076-.19.274-.401.538-.601.812-2.918 3.925-6.085 7.659-9.483 11.179.58.558 7.481 6.912 8.134 7.502 2.585-2.698 5.044-5.525 7.376-8.482z" fill="url(#C)" opacity=".35"/><path d="m248.93 161.31-6.089-1.475c.702-2.451 1.303-4.91 1.801-7.375l-2.55-.538c-.66 3.175-1.464 6.336-2.412 9.483l11.126 2.824c1.663-5.791 2.913-11.692 3.74-17.659.905-5.957 1.384-11.971 1.433-17.996l-11.368-.453c0 3.477-.165 6.971-.496 10.484l2.603.242c.253-2.81.411-5.599.474-8.366l6.174.316c-.112 5.148-.527 10.284-1.243 15.383-.762 5.102-1.829 10.155-3.193 15.13z" fill="url(#D)" opacity=".35"/><path d="m241.05 170.425c-1.033 2.747-2.15 5.44-3.351 8.081l-5.331-2.423v-.105c.347-.759.685-1.507 1.053-2.266 1.405-3.301 2.687-6.69 3.846-10.167-.004-.021-.004-.042 0-.063.074-.232.158-.453.232-.685.158-.495.295-1.001.443-1.486 1.229-4.051 2.235-8.166 3.013-12.327l5.742 1.127c-.478 2.508-1.032 5.015-1.665 7.523l2.645.558c.843-3.329 1.549-6.68 2.107-10.02-.727-.147-10.041-1.959-10.863-2.107-.733 4.424-1.725 8.8-2.971 13.107-.348 1.201-.706 2.403-1.053 3.593-.106.327-.222.632-.327.959-1.546 4.628-3.39 9.15-5.521 13.539.737.358 9.261 4.267 10.062 4.626 1.609-3.358 3.087-6.81 4.436-10.357z" fill="url(#E)" opacity=".35"/><path d="m253.313 122.305-6.259.485c-.105-2.55-.292-5.082-.558-7.597l-2.603.274c.348 3.224.569 6.491.643 9.788l11.453-.748c-.207-6.008-.841-11.993-1.897-17.911-.994-5.946-2.402-11.8149-4.214-17.5643l-10.958 3.0872c1.061 3.3154 1.981 6.6905 2.76 10.1251l2.55-.569c-.625-2.7392-1.327-5.4399-2.107-8.1021l5.964-1.6015c1.483 4.927 2.676 9.9366 3.571 15.0036.848 5.074 1.401 10.193 1.655 15.33z" fill="url(#F)" opacity=".35"/><path d="m248.582 133.41c-.126 2.936-.358 5.844-.695 8.724l-5.816-.653s0-.085 0-.127c.095-.822.179-1.633.253-2.465.337-3.572.516-7.186.516-10.853v-.063c0-.242 0-.485 0-.727 0-.527 0-1.054 0-1.549-.083-4.228-.396-8.449-.938-12.643l5.806-.706c.326 2.539.569 5.089.737 7.67l2.698-.284c-.232-3.435-.59-6.828-1.054-10.178-.738.073-10.157 1.232-10.989 1.348.678 4.432 1.09 8.9 1.232 13.381.043 1.258.064 2.511.064 3.762v1.053c-.036 4.882-.388 9.757-1.054 14.593.811.116 10.125 1.191 10.989 1.286.506-3.688.854-7.428 1.054-11.222z" fill="url(#G)" opacity=".35"/><path d="m245.422 83.8579-5.806 2.3918c-.885-2.3882-1.844-4.7379-2.876-7.0488l-2.381 1.0536c1.317 2.9607 2.539 5.9951 3.624 9.1033l10.663-4.2145c-2.064-5.6646-4.528-11.175-7.376-16.4893-2.769-5.3501-5.913-10.4976-9.408-15.404l-9.483 6.3218c2.044 2.8096 3.965 5.7352 5.763 8.7766l2.234-1.338c-1.405-2.4093-2.912-4.7589-4.52-7.0488l5.173-3.3716c2.934 4.2337 5.618 8.6348 8.039 13.1809 2.391 4.5676 4.513 9.2713 6.354 14.087z" fill="url(#H)" opacity=".35"/><path d="m244.368 95.8693c.78 2.8097 1.457 5.6437 2.033 8.5027l-5.731 1.18c-.005-.038-.005-.077 0-.116-.169-.811-.338-1.622-.527-2.434-.78-3.5118-1.735-7.0028-2.866-10.4727.005-.0209.005-.0425 0-.0633-.063-.2318-.137-.4635-.2-.6953-.179-.4952-.348-.9799-.527-1.4646-1.389-3.9995-2.993-7.9212-4.805-11.748l5.269-2.4549c1.053 2.3075 2.107 4.6676 3.076 7.0593l2.466-1.0536c-1.279-3.196-2.684-6.3113-4.215-9.3457-.674.3055-9.282 4.3093-10.03 4.678 2 4.0074 3.76 8.131 5.268 12.3487.421 1.18.832 2.3601 1.222 3.5507l.305.9692c1.467 4.6552 2.635 9.3992 3.499 14.2032.8-.148 9.988-1.992 10.852-2.181-.667-3.66-1.503-7.3195-2.508-10.9791z" fill="url(#I)" opacity=".35"/><path d="m226.034 49.7313-4.773 4.067c-1.594-2.0019-3.234-3.9371-4.92-5.8055l-1.939 1.7385c2.171 2.4093 4.278 4.924 6.322 7.544l8.819-7.3754c-3.706-4.7474-7.745-9.2262-12.085-13.4022-4.281-4.2328-8.859-8.1552-13.697-11.7374l-7.049 8.9348c2.81 2.0581 5.539 4.2461 8.187 6.5641l1.717-1.9597c-2.107-1.8544-4.267-3.614-6.48-5.2682l3.888-4.8046c4.094 3.1161 8.003 6.4689 11.706 10.0411 3.656 3.616 7.097 7.4437 10.304 11.4635z" fill="url(#J)" opacity=".35"/><path d="m228.774 61.4684c1.622 2.4514 3.143 4.938 4.562 7.4597l-5.089 2.8974v-.1053c-.411-.7165-.822-1.4329-1.243-2.1073-1.833-3.0871-3.814-6.1215-5.974-9.0822l-.411-.5901c-.316-.4215-.643-.8323-.959-1.2327-2.553-3.3757-5.286-6.6116-8.187-9.6935l4.289-3.9722c1.749 1.8544 3.445 3.7827 5.099 5.7635l2.013-1.8018c-2.199-2.6481-4.489-5.1838-6.87-7.6072-.548.5058-7.491 6.9751-8.092 7.5546 3.15 3.1914 6.106 6.569 8.851 10.1148.769.9799 1.527 1.9808 2.265 2.9923l.579.8218c2.841 3.9731 5.42 8.1261 7.723 12.4329.717-.3898 8.893-4.9837 9.652-5.4262-1.77-3.2768-3.688-6.5115-5.785-9.6724z" fill="url(#K)" opacity=".35"/><path d="m197.061 23.2645-3.287 5.3524c-2.108-1.4119-4.289-2.7499-6.48-4.0142l-1.307 2.2652c2.81 1.6085 5.574 3.3645 8.292 5.2681l6.122-9.7039c-4.992-3.3727-10.217-6.3865-15.636-9.019-5.386-2.6961-10.956-5.00938-16.668-6.92238l-3.941 10.68378c3.309 1.0747 6.578 2.311 9.81 3.7088l1.053-2.3917c-2.571-1.1169-5.17-2.1319-7.797-3.045l2.202-5.7739c4.86 1.7019 9.617 3.6861 14.245 5.9425 4.608 2.2887 9.08 4.8428 13.392 7.6493z" fill="url(#L)" opacity=".35"/><path d="m203.276 33.5784c2.297 1.8333 4.513 3.7299 6.648 5.6896-.305.3477-3.53 3.8773-3.941 4.3199l-.084-.0737c-.611-.5585-1.222-1.1168-1.854-1.6647-2.683-2.3672-5.493-4.6326-8.429-6.796h-.063l-.569-.4424-1.286-.8746c-3.471-2.4227-7.073-4.6527-10.789-6.68.243-.4215 2.624-4.6886 2.855-5.1101 2.234 1.2222 4.443 2.5252 6.628 3.9089l1.359-2.339c-2.915-1.8333-5.876-3.5366-8.882-5.1101-.369.6533-4.973 8.9558-5.363 9.6828 3.996 2.0616 7.866 4.3591 11.59 6.8803 1.053.6953 2.107 1.4118 3.076 2.1072l.812.6005c3.923 2.9214 7.656 6.0887 11.179 9.4827.569-.5901 6.911-7.4913 7.501-8.134-2.69-2.5779-5.499-5.0363-8.429-7.3754z" fill="url(#M)" opacity=".35"/><path d="m161.31 7.04806-1.475 6.10054c-2.451-.7024-4.91-1.3066-7.375-1.8123l-.537 2.5603c3.174.6673 6.335 1.4716 9.482 2.4129l2.824-11.12638c-5.79-1.66315-11.691-2.91314-17.659-3.74044-5.956-.910966-11.971-1.3898455-17.996-1.43291438l-.453 11.36873438c3.477 0 6.975.1685 10.484.4951l.242-2.59186c-2.792-.2634-5.584-.42141-8.355-.48462l.316-6.16383c5.144.11236 10.277.52756 15.372 1.24334 5.102.75871 10.154 1.8177 15.13 3.17143z" fill="url(#N)" opacity=".35"/><path d="m170.425 14.9397c2.761 1.0536 5.448 2.1073 8.082 3.3506l-2.424 5.3313h-.105l-2.265-1.0536c-3.302-1.4049-6.691-2.6868-10.168-3.8458h-.063l-.685-.2423-1.485-.4321c-4.051-1.2298-8.167-2.2358-12.328-3.0133.095-.4847 1.054-5.2681 1.127-5.74224 2.508.47414 5.016 1.05354 7.523 1.66474l.559-2.64467c-3.33-.8429-6.68-1.54883-10.02-2.10725-.148.727-1.96 10.04112-2.108 10.86292 4.425.7279 8.802 1.72 13.108 2.9712 1.201.3477 2.402.7059 3.593 1.0536l.958.3267c4.631 1.5473 9.157 3.3914 13.55 5.521.348-.7375 4.214-9.2614 4.615-10.0622-3.351-1.6226-6.803-3.1011-10.357-4.4357z" fill="url(#O)" opacity=".35"/></g></svg>