<svg width="256" height="256" viewBox="0 0 256 256" fill="none" xmlns="http://www.w3.org/2000/svg">
<g opacity="0.8">
<g opacity="0.5">
<path opacity="0.35" d="M122.306 2.67626L122.79 8.93487C120.241 9.04024 117.708 9.22628 115.194 9.4932L115.468 12.0852C118.692 11.7481 121.958 11.5267 125.256 11.4529L124.508 0C118.5 0.207013 112.514 0.840838 106.596 1.89658C100.65 2.88625 94.7804 4.29459 89.0322 6.11109L92.1193 17.0689C95.4417 16.0082 98.8168 15.0845 102.245 14.2978L101.676 11.748C98.9362 12.3661 96.2353 13.0685 93.5732 13.8552L91.9719 7.89179C96.8988 6.40843 101.909 5.21576 106.975 4.31998C112.048 3.46937 117.168 2.92045 122.306 2.67626Z" fill="url(#paint0_linear_1678_7598)"/>
<path opacity="0.35" d="M133.42 7.35523C136.349 7.49571 139.254 7.73094 142.134 8.06108C142.134 8.51414 141.554 13.3292 141.481 13.8666H141.365C140.543 13.7718 139.721 13.6875 138.889 13.6137C135.317 13.2766 131.703 13.0975 128.036 13.0975H127.973H127.246H125.697C121.469 13.1802 117.248 13.4933 113.054 14.0352C112.99 13.5505 112.411 8.69328 112.348 8.21915C114.887 7.90306 117.437 7.65024 120.018 7.48166L119.734 4.79485C116.299 5.02665 112.906 5.38488 109.556 5.84848C109.64 6.58602 110.788 16.0055 110.904 16.8273C115.337 16.1576 119.805 15.7494 124.285 15.6051C125.543 15.5629 126.796 15.5418 128.047 15.5418H129.1C133.979 15.5773 138.85 15.9293 143.683 16.5954C143.798 15.7841 144.873 6.47013 144.968 5.59562C141.28 5.10042 137.593 4.75272 133.747 4.54199L133.42 7.35523Z" fill="url(#paint1_linear_1678_7598)"/>
<path opacity="0.35" d="M83.8583 10.568L86.2501 16.363C83.8549 17.2621 81.5089 18.2244 79.2119 19.2499L80.2656 21.6311C83.2298 20.3035 86.2676 19.0954 89.3794 18.0067L85.1648 7.34399C79.5011 9.40992 73.991 11.8746 68.6757 14.7194C63.3273 17.4917 58.1799 20.6356 53.2715 24.1282L59.5933 33.6109C62.4029 31.5668 65.3286 29.6457 68.3701 27.8475L67.0319 25.6139C64.6191 27.0363 62.2696 28.5535 59.9938 30.134L56.6117 24.9606C60.8424 22.0225 65.2438 19.3381 69.7926 16.9214C74.3533 14.5311 79.0498 12.4096 83.8583 10.568Z" fill="url(#paint2_linear_1678_7598)"/>
<path opacity="0.35" d="M95.8696 11.5895C98.6793 10.8028 101.514 10.125 104.372 9.55603C104.467 10.0091 105.426 14.6977 105.552 15.2877H105.437L103.013 15.804C99.5046 16.5942 96.0066 17.5426 92.477 18.6805H92.4137L91.7184 18.8806L90.2537 19.4074C86.2559 20.7919 82.3376 22.3959 78.5164 24.212C78.3057 23.7695 76.251 19.3337 76.0509 18.9439C78.3583 17.8903 80.7184 16.8366 83.1101 15.8673L82.0565 13.4018C78.8605 14.6802 75.7454 16.085 72.7109 17.6163C73.0165 18.2906 77.0202 26.8988 77.389 27.6469C81.3972 25.6478 85.5206 23.8887 89.7375 22.3787C90.9175 21.9573 92.0977 21.5358 93.2989 21.1459L94.2576 20.8509C98.9127 19.3843 103.657 18.2159 108.46 17.3529C108.313 16.5521 106.469 7.35393 106.29 6.50049C102.623 7.16076 98.9602 7.99664 95.3006 9.00813L95.8696 11.5895Z" fill="url(#paint3_linear_1678_7598)"/>
<path opacity="0.35" d="M49.7317 29.9549L53.7985 34.7278C51.8072 36.3188 49.8687 37.9519 47.9933 39.6482L49.7317 41.587C52.141 39.4165 54.6555 37.3092 57.2756 35.2652L49.9002 26.4358C45.1545 30.1482 40.6761 34.19 36.498 38.5314C32.2652 42.8126 28.343 47.3899 24.7607 52.2286L33.6955 59.2668C35.8027 56.4641 37.91 53.7248 40.2596 51.0802L38.2997 49.3627C36.4453 51.47 34.6858 53.5772 33.0316 55.8425L28.2272 51.9546C31.3433 47.8604 34.6958 43.9518 38.2681 40.2488C41.8843 36.596 45.7122 33.1587 49.7317 29.9549Z" fill="url(#paint4_linear_1678_7598)"/>
<path opacity="0.35" d="M61.4681 27.2142C63.9195 25.5916 66.4097 24.0708 68.9384 22.6519L71.8359 27.741H71.7304L69.6232 28.9842C66.5396 30.8175 63.5123 32.8054 60.541 34.9478H60.4883L59.8982 35.3587L58.6655 36.307C55.291 38.861 52.0586 41.5975 48.9828 44.5043C48.6456 44.1566 45.3266 40.5636 45 40.216C46.8544 38.4669 48.7825 36.7706 50.7633 35.1164L48.9617 33.104C46.3206 35.3096 43.7849 37.5995 41.3545 39.9736C41.8602 40.5215 48.3294 47.4649 48.9089 48.0654C52.1052 44.9174 55.4827 41.9588 59.0239 39.2045C60.0037 38.4459 61.0045 37.6873 62.016 36.9392L62.8379 36.3596C66.8151 33.5288 70.9677 30.9528 75.2707 28.6471C74.8914 27.9307 70.2872 19.7545 69.8447 18.9958C66.5679 20.7554 63.333 22.6835 60.1722 24.7697L61.4681 27.2142Z" fill="url(#paint5_linear_1678_7598)"/>
<path opacity="0.35" d="M23.2752 58.9295L28.6172 62.2168C27.2124 64.324 25.8742 66.484 24.6028 68.6966L26.8683 70.0031C28.4768 67.1934 30.2329 64.4294 32.1364 61.711L22.422 55.5789C19.0524 60.5744 16.042 65.8031 13.4134 71.2253C10.7115 76.6107 8.39465 82.1807 6.48047 87.8937L17.1644 91.8342C18.2391 88.5258 19.4751 85.2562 20.8729 82.025L18.4814 80.9714C17.3646 83.5422 16.3495 86.1411 15.4363 88.7681L9.66245 86.5661C11.3622 81.7053 13.3464 76.9487 15.6048 72.321C17.898 67.7113 20.4592 63.2398 23.2752 58.9295Z" fill="url(#paint6_linear_1678_7598)"/>
<path opacity="0.35" d="M33.6407 52.7032C35.467 50.4063 37.3599 48.1902 39.3196 46.0549C39.6673 46.371 43.2076 49.5951 43.6396 50.006L43.5658 50.0902C43.0074 50.7013 42.4491 51.3124 41.9012 51.9341C39.5341 54.6314 37.2686 57.4587 35.1051 60.4158L34.6627 60.9953C34.3677 61.4272 34.0726 61.8488 33.7881 62.2808C31.3692 65.7545 29.1394 69.3561 27.1083 73.0699L21.9981 70.2145C23.2203 67.9808 24.5232 65.7683 25.907 63.5767L23.5679 62.2281C21.7346 65.1361 20.0279 68.1074 18.458 71.1102C19.1113 71.479 27.4138 76.0833 28.1408 76.4731C30.2064 72.479 32.5037 68.6091 35.021 64.8832C35.7269 63.8296 36.4329 62.7759 37.1283 61.796C37.3285 61.5326 37.539 61.2692 37.7392 60.9953C40.6573 57.0696 43.8247 53.3356 47.2218 49.8163C46.6318 49.2473 39.7306 42.9045 39.0879 42.3145C36.51 45.0047 34.0515 47.8144 31.7125 50.7435L33.6407 52.7032Z" fill="url(#paint7_linear_1678_7598)"/>
<path opacity="0.35" d="M7.05848 94.6793L13.1485 96.1437C12.4461 98.6092 11.8455 101.068 11.3468 103.519L13.8965 104.067C14.5568 100.892 15.3611 97.7312 16.3094 94.5844L5.18299 91.7607C3.51984 97.5511 2.26986 103.452 1.44256 109.42C0.538107 115.377 0.0593942 121.39 0.00976562 127.415L11.3785 127.869C11.3785 124.381 11.547 120.894 11.8736 117.332L9.2712 117.09C9.01833 119.9 8.85655 122.685 8.78631 125.445L2.62274 125.129C2.73476 119.985 3.14984 114.852 3.86595 109.757C4.63044 104.672 5.69652 99.6374 7.05848 94.6793Z" fill="url(#paint8_linear_1678_7598)"/>
<path opacity="0.35" d="M14.9416 85.5535C15.9742 82.8071 17.091 80.1168 18.2921 77.4827L23.6235 79.8955V80.0114C23.2864 80.7595 22.9492 81.5181 22.5699 82.2768C21.1651 85.5711 19.8833 88.9603 18.7243 92.4443C18.7288 92.4651 18.7288 92.4866 18.7243 92.5074L18.4925 93.1818C18.3345 93.6875 18.1868 94.2355 18.0498 94.678C16.82 98.7287 15.8141 102.844 15.0366 107.005L9.29409 105.878C9.77173 103.37 10.3267 100.863 10.9589 98.3551L8.31429 97.7861C7.47138 101.123 6.76897 104.466 6.20703 107.817C6.93403 107.964 16.2482 109.776 17.07 109.924C17.7967 105.499 18.7889 101.122 20.0413 96.8168C20.389 95.6156 20.7472 94.4146 21.0949 93.224C21.2003 92.8973 21.316 92.5812 21.4214 92.2651C22.9686 87.6346 24.8128 83.1087 26.9424 78.7155C26.2048 78.3573 17.6812 74.501 16.8804 74.1006C15.2578 77.4511 13.779 80.9035 12.4444 84.4577L14.9416 85.5535Z" fill="url(#paint9_linear_1678_7598)"/>
<path opacity="0.35" d="M2.67626 133.674L8.93474 133.2C9.04011 135.749 9.22628 138.278 9.4932 140.786L12.0956 140.522C11.7479 137.298 11.5266 134.032 11.4528 130.734L0 131.482C0.207509 137.49 0.84133 143.476 1.89658 149.394C2.88977 155.336 4.29806 161.202 6.11109 166.947L17.0687 163.86C16.001 160.552 15.0772 157.18 14.2975 153.745L11.7478 154.325C12.373 157.064 13.0754 159.765 13.8551 162.427L7.89166 164.029C6.4076 159.098 5.21479 154.085 4.31972 149.015C3.47443 143.937 2.92581 138.815 2.67626 133.674Z" fill="url(#paint10_linear_1678_7598)"/>
<path opacity="0.35" d="M7.3659 122.569C7.49234 119.639 7.72404 116.735 8.0612 113.855L13.8667 114.508C13.8719 114.547 13.8719 114.586 13.8667 114.624C13.7719 115.446 13.6876 116.268 13.6138 117.1C13.2767 120.672 13.0976 124.286 13.0976 127.953V128.016C13.0976 128.258 13.0976 128.49 13.0976 128.743C13.0976 129.259 13.0976 129.796 13.0976 130.292C13.1803 134.52 13.4933 138.741 14.0352 142.935L8.22969 143.63C7.90307 141.102 7.65024 138.542 7.48166 135.971L4.79511 136.245C5.02691 139.679 5.38514 143.083 5.84874 146.433C6.58628 146.349 16.0056 145.2 16.8275 145.085C16.1573 140.649 15.749 136.177 15.6051 131.693C15.6051 130.45 15.5421 129.196 15.5421 127.942C15.5421 127.605 15.5421 127.268 15.5421 126.888C15.578 122.006 15.93 117.132 16.5957 112.296C15.7844 112.19 6.47013 111.105 5.59562 111.01C5.10042 114.708 4.75272 118.449 4.54199 122.242L7.3659 122.569Z" fill="url(#paint11_linear_1678_7598)"/>
<path opacity="0.35" d="M10.5679 172.121L16.3629 169.729C17.262 172.131 18.2243 174.481 19.2498 176.778L21.631 175.724C20.314 172.763 19.0916 169.729 18.0063 166.61L7.34375 170.825C9.41198 176.487 11.8765 181.998 14.7191 187.314C17.4865 192.662 20.6306 197.806 24.128 202.707L33.6106 196.386C31.5666 193.576 29.6455 190.654 27.8473 187.619L25.6135 188.947C27.0183 191.356 28.5251 193.706 30.1336 195.996L24.9604 199.367C22.0208 195.141 19.3361 190.743 16.9211 186.197C14.5295 181.633 12.4083 176.933 10.5679 172.121Z" fill="url(#paint12_linear_1678_7598)"/>
<path opacity="0.35" d="M11.5901 160.076C10.8034 157.266 10.1254 154.432 9.55639 151.573L15.2883 150.404C15.2943 150.442 15.2943 150.481 15.2883 150.519C15.4569 151.331 15.6255 152.132 15.8151 152.943C16.5948 156.455 17.5501 159.949 18.681 163.426C18.6764 163.447 18.6764 163.469 18.681 163.49C18.7442 163.721 18.8179 163.953 18.8811 164.185C19.0602 164.68 19.2288 165.165 19.4079 165.65C20.7924 169.647 22.3964 173.566 24.2125 177.387L18.9444 179.853C17.8486 177.549 16.8229 175.192 15.8676 172.783L13.4023 173.836C14.6807 177.032 16.0855 180.147 17.6168 183.182L27.6474 178.504C25.6464 174.493 23.8872 170.366 22.3792 166.145C21.9578 164.975 21.5361 163.795 21.1568 162.594C21.0515 162.278 20.9569 161.951 20.8515 161.635C19.3862 156.98 18.2178 152.236 17.3534 147.432C16.5526 147.569 7.36495 149.424 6.50098 149.603C7.16827 153.27 8.00429 156.933 9.00874 160.592L11.5901 160.076Z" fill="url(#paint13_linear_1678_7598)"/>
<path opacity="0.35" d="M29.9548 206.248L34.7277 202.181C36.3152 204.182 37.9553 206.121 39.6481 207.997L41.5868 206.248C39.4164 203.845 37.3267 201.334 35.3178 198.714L26.4883 206.09C30.1992 210.84 34.2411 215.322 38.5839 219.502C42.8651 223.735 47.4424 227.658 52.2811 231.24L59.3298 222.305C56.5166 220.25 53.7774 218.09 51.1433 215.741L49.4258 217.701C51.533 219.548 53.6929 221.304 55.9055 222.969L52.0177 227.773C47.9234 224.657 44.0149 221.304 40.312 217.732C36.6384 214.109 33.18 210.275 29.9548 206.248Z" fill="url(#paint14_linear_1678_7598)"/>
<path opacity="0.35" d="M27.2163 194.509C25.5937 192.065 24.0732 189.578 22.6543 187.05L27.7431 184.163C27.745 184.198 27.745 184.233 27.7431 184.268C28.1541 184.984 28.5652 185.701 28.9866 186.375C30.8199 189.462 32.8007 192.497 34.9606 195.457V195.51L35.3714 196.1C35.6875 196.522 36.0037 196.933 36.3304 197.333C38.8834 200.705 41.6163 203.937 44.5171 207.016L40.2287 210.999C38.4797 209.144 36.7833 207.216 35.1291 205.235L33.1168 207.037C35.3223 209.678 37.6123 212.21 39.9864 214.633C40.5343 214.138 47.4777 207.669 48.0782 207.09C44.9302 203.893 41.9716 200.516 39.2173 196.975C38.4587 195.995 37.6999 194.994 36.9624 193.972C36.7622 193.708 36.5727 193.424 36.3726 193.15C33.5418 189.176 30.9657 185.027 28.6599 180.728C27.9435 181.107 19.7674 185.711 19.0088 186.143C20.7789 189.431 22.7035 192.658 24.7826 195.826L27.2163 194.509Z" fill="url(#paint15_linear_1678_7598)"/>
<path opacity="0.35" d="M58.9286 232.716L62.216 227.374C64.3233 228.779 66.4831 230.113 68.6957 231.378L70.0022 229.123C67.1926 227.507 64.4284 225.751 61.7101 223.855L55.5781 233.569C60.5785 236.931 65.8064 239.941 71.2243 242.578C76.6097 245.28 82.1798 247.596 87.8928 249.51L91.8334 238.827C88.525 237.738 85.2551 236.502 82.024 235.118L80.9704 237.51C83.5412 238.613 86.1404 239.627 88.7674 240.555L86.5652 246.318C81.7043 244.623 76.9477 242.642 72.3202 240.386C67.7104 238.093 63.2389 235.532 58.9286 232.716Z" fill="url(#paint16_linear_1678_7598)"/>
<path opacity="0.35" d="M52.7022 222.401C50.4053 220.578 48.1926 218.671 46.0537 216.711L49.9943 212.392L50.0786 212.476C50.6897 213.034 51.3008 213.593 51.9225 214.141C54.6198 216.515 57.4295 218.777 60.3515 220.926H60.404L60.9835 221.368L62.2689 222.243C65.7427 224.662 69.3443 226.892 73.0581 228.923C72.8157 229.345 70.4346 233.612 70.2028 234.033C67.9691 232.8 65.7564 231.504 63.5649 230.124L62.2165 232.463C65.1385 234.296 68.0991 235.996 71.0985 237.563C71.4672 236.92 76.0714 228.618 76.4613 227.88C72.4651 225.822 68.595 223.528 64.8714 221.01C63.8177 220.304 62.7642 219.599 61.7948 218.903C61.5209 218.713 61.2575 218.503 60.9835 218.302C57.0594 215.401 53.3256 212.252 49.8047 208.873C49.2357 209.452 42.8928 216.353 42.3027 217.007C44.986 219.584 47.7956 222.043 50.7318 224.382L52.7022 222.401Z" fill="url(#paint17_linear_1678_7598)"/>
<path opacity="0.35" d="M94.6793 248.93L96.1545 242.84C98.6095 243.514 101.075 244.125 103.53 244.641L104.067 242.092C100.892 241.424 97.7315 240.62 94.5846 239.679L91.7607 250.805C97.5526 252.462 103.453 253.712 109.42 254.545C115.378 255.436 121.391 255.908 127.416 255.957L127.869 244.589C124.357 244.589 120.845 244.423 117.332 244.093L117.09 246.696C119.882 246.949 122.674 247.107 125.445 247.17L125.129 253.344C119.985 253.232 114.852 252.817 109.757 252.101C104.674 251.337 99.6393 250.278 94.6793 248.93Z" fill="url(#paint18_linear_1678_7598)"/>
<path opacity="0.35" d="M85.5534 241.05C82.8 240.018 80.1098 238.897 77.4828 237.689L79.8953 232.421H80.0114C80.7594 232.768 81.5179 233.106 82.2765 233.474C85.5779 234.879 88.9672 236.161 92.4442 237.32H92.5075L93.1922 237.563C93.6874 237.721 94.1826 237.857 94.6778 238.005C98.7299 239.23 102.845 240.236 107.005 241.018C106.91 241.493 105.952 246.287 105.878 246.761C103.37 246.29 100.863 245.735 98.355 245.096L97.7966 247.74C101.126 248.583 104.477 249.289 107.817 249.848C107.964 249.121 109.776 239.807 109.924 238.985C105.514 238.222 101.152 237.206 96.8588 235.94C95.6577 235.592 94.4567 235.234 93.2661 234.886L92.3071 234.56C87.6766 233.012 83.1508 231.168 78.7576 229.039C78.4099 229.776 74.543 238.3 74.1426 239.101C77.4931 240.713 80.9491 242.198 84.4998 243.526L85.5534 241.05Z" fill="url(#paint19_linear_1678_7598)"/>
<path opacity="0.35" d="M133.674 253.313L133.2 247.054C135.75 246.949 138.278 246.759 140.786 246.485L140.522 243.893C137.298 244.241 134.032 244.462 130.734 244.536L131.482 255.989C137.49 255.775 143.475 255.141 149.394 254.093C155.338 253.109 161.205 251.701 166.948 249.878L163.86 238.931C160.552 239.999 157.18 240.919 153.746 241.691L154.325 244.231C157.065 243.62 159.762 242.903 162.427 242.123L164.029 248.087C159.102 249.57 154.092 250.763 149.025 251.659C143.945 252.507 138.819 253.06 133.674 253.313Z" fill="url(#paint20_linear_1678_7598)"/>
<path opacity="0.35" d="M122.568 248.583C119.639 248.457 116.734 248.225 113.855 247.888C113.855 247.424 114.434 242.62 114.508 242.072H114.624C115.445 242.156 116.267 242.251 117.1 242.325C120.671 242.662 124.285 242.841 127.952 242.841H128.742H130.291C134.52 242.758 138.74 242.445 142.935 241.903C142.935 242.377 143.577 247.234 143.63 247.708C141.101 248.039 138.548 248.285 135.97 248.446L136.255 251.133C139.69 250.911 143.082 250.543 146.433 250.079C146.348 249.342 145.2 239.922 145.084 239.09C140.649 239.765 136.177 240.173 131.693 240.312C130.449 240.312 129.195 240.386 127.942 240.386H126.888C122.006 240.35 117.132 239.998 112.295 239.332C112.19 240.143 111.105 249.457 111.01 250.321C114.708 250.827 118.448 251.175 122.241 251.375L122.568 248.583Z" fill="url(#paint21_linear_1678_7598)"/>
<path opacity="0.35" d="M172.122 245.422L169.741 239.617C172.129 238.732 174.475 237.773 176.779 236.741L175.725 234.349C172.765 235.676 169.73 236.898 166.611 237.984L170.826 248.647C176.489 246.578 181.999 244.114 187.315 241.271C192.667 238.508 197.812 235.36 202.709 231.852L196.387 222.369C193.577 224.413 190.652 226.334 187.61 228.132L188.938 230.377C191.361 228.944 193.7 227.437 195.986 225.856L199.358 231.03C195.129 233.965 190.731 236.649 186.188 239.069C181.628 241.46 176.931 243.582 172.122 245.422Z" fill="url(#paint22_linear_1678_7598)"/>
<path opacity="0.35" d="M160.077 244.368C157.267 245.147 154.43 245.825 151.564 246.401C151.48 245.948 150.51 241.249 150.394 240.669H150.51C151.321 240.511 152.133 240.343 152.933 240.153C156.446 239.373 159.958 238.418 163.47 237.287H163.533L164.228 237.077L165.693 236.56C169.689 235.171 173.607 233.567 177.43 231.756C177.641 232.198 179.685 236.634 179.896 237.024C177.588 238.077 175.228 239.131 172.826 240.09L173.932 242.566C177.121 241.287 180.237 239.883 183.278 238.351C182.972 237.677 178.958 229.069 178.6 228.321C174.587 230.317 170.46 232.076 166.241 233.589C165.071 234.01 163.891 234.421 162.69 234.811L161.731 235.117C157.076 236.583 152.332 237.752 147.528 238.615C147.665 239.416 149.52 248.603 149.699 249.467C153.365 248.8 157.029 247.964 160.688 246.959L160.077 244.368Z" fill="url(#paint23_linear_1678_7598)"/>
<path opacity="0.35" d="M206.247 226.036L202.191 221.263C204.179 219.668 206.114 218.028 207.996 216.342L206.247 214.404C203.845 216.574 201.334 218.682 198.714 220.726L206.089 229.544C210.844 225.843 215.327 221.804 219.502 217.459C223.732 213.175 227.654 208.598 231.239 203.762L222.305 196.713C220.247 199.523 218.058 202.252 215.74 204.9L217.7 206.617C219.547 204.51 221.304 202.35 222.968 200.138L227.773 204.026C224.657 208.12 221.304 212.028 217.732 215.731C214.108 219.387 210.273 222.828 206.247 226.036Z" fill="url(#paint24_linear_1678_7598)"/>
<path opacity="0.35" d="M194.509 228.774C192.065 230.397 189.578 231.918 187.049 233.337L184.162 228.248L184.268 228.184C184.984 227.784 185.701 227.373 186.375 226.941C189.459 225.115 192.486 223.127 195.457 220.978H195.51L196.1 220.567L197.333 219.608C200.708 217.054 203.94 214.318 207.016 211.411C207.353 211.769 210.672 215.362 210.998 215.699C209.144 217.459 207.216 219.155 205.235 220.809L207.037 222.822C209.685 220.609 212.217 218.319 214.633 215.952C214.138 215.404 207.669 208.45 207.089 207.86C203.893 211.005 200.516 213.96 196.975 216.71C195.995 217.48 194.994 218.238 193.982 218.976L193.16 219.555C189.186 222.393 185.033 224.973 180.728 227.278C181.107 227.995 185.711 236.16 186.154 236.93C189.431 235.159 192.665 233.242 195.826 231.145L194.509 228.774Z" fill="url(#paint25_linear_1678_7598)"/>
<path opacity="0.35" d="M232.715 197.05L227.374 193.763C228.785 191.656 230.124 189.485 231.377 187.294L229.123 185.987C227.514 188.797 225.758 191.561 223.854 194.279L233.569 200.401C236.935 195.407 239.946 190.182 242.577 184.765C245.279 179.38 247.596 173.81 249.51 168.097L238.827 164.156C237.738 167.458 236.501 170.727 235.118 173.965L237.509 175.019C238.563 172.448 239.617 169.835 240.554 167.212L246.318 169.424C244.622 174.285 242.642 179.042 240.386 183.669C238.094 188.276 235.533 192.745 232.715 197.05Z" fill="url(#paint26_linear_1678_7598)"/>
<path opacity="0.35" d="M222.4 203.277C220.573 205.574 218.68 207.786 216.721 209.915C216.373 209.609 212.833 206.374 212.39 205.974L212.474 205.879C213.033 205.279 213.591 204.657 214.139 204.035C216.51 201.338 218.775 198.525 220.925 195.554L221.367 194.985L222.242 193.699C224.661 190.225 226.89 186.624 228.922 182.91C229.343 183.152 233.61 185.534 234.032 185.755C232.809 188.003 231.506 190.215 230.123 192.393L232.462 193.752C234.295 190.837 235.995 187.876 237.561 184.87C236.919 184.501 228.616 179.897 227.878 179.507C225.821 183.503 223.527 187.373 221.009 191.097C220.303 192.15 219.597 193.204 218.902 194.173C218.712 194.447 218.501 194.711 218.301 194.985C215.383 198.91 212.216 202.644 208.818 206.164C209.398 206.722 216.299 213.076 216.952 213.666C219.537 210.968 221.996 208.141 224.328 205.184L222.4 203.277Z" fill="url(#paint27_linear_1678_7598)"/>
<path opacity="0.35" d="M248.93 161.31L242.841 159.835C243.543 157.384 244.144 154.925 244.642 152.46L242.092 151.922C241.432 155.097 240.628 158.258 239.68 161.405L250.806 164.229C252.469 158.438 253.719 152.537 254.546 146.57C255.451 140.613 255.93 134.599 255.979 128.574L244.611 128.121C244.611 131.598 244.446 135.092 244.115 138.605L246.718 138.847C246.971 136.037 247.129 133.248 247.192 130.481L253.366 130.797C253.254 135.945 252.839 141.081 252.123 146.18C251.361 151.282 250.294 156.335 248.93 161.31Z" fill="url(#paint28_linear_1678_7598)"/>
<path opacity="0.35" d="M241.05 170.425C240.017 173.172 238.9 175.865 237.699 178.506L232.368 176.083V175.978C232.715 175.219 233.053 174.471 233.421 173.712C234.826 170.411 236.108 167.022 237.267 163.545C237.263 163.524 237.263 163.503 237.267 163.482C237.341 163.25 237.425 163.029 237.499 162.797C237.657 162.302 237.794 161.796 237.942 161.311C239.171 157.26 240.177 153.145 240.955 148.984L246.697 150.111C246.219 152.619 245.665 155.126 245.032 157.634L247.677 158.192C248.52 154.863 249.226 151.512 249.784 148.172C249.057 148.025 239.743 146.213 238.921 146.065C238.188 150.489 237.196 154.865 235.95 159.172C235.602 160.373 235.244 161.575 234.897 162.765C234.791 163.092 234.675 163.397 234.57 163.724C233.024 168.352 231.18 172.874 229.049 177.263C229.786 177.621 238.31 181.53 239.111 181.889C240.72 178.531 242.198 175.079 243.547 171.532L241.05 170.425Z" fill="url(#paint29_linear_1678_7598)"/>
<path opacity="0.35" d="M253.313 122.305L247.054 122.79C246.949 120.24 246.762 117.708 246.496 115.193L243.893 115.467C244.241 118.691 244.462 121.958 244.536 125.255L255.989 124.507C255.782 118.499 255.148 112.514 254.092 106.596C253.098 100.65 251.69 94.7811 249.878 89.0317L238.92 92.1189C239.981 95.4343 240.901 98.8094 241.68 102.244L244.23 101.675C243.605 98.9358 242.903 96.2351 242.123 93.5729L248.087 91.9714C249.57 96.8984 250.763 101.908 251.658 106.975C252.506 112.049 253.059 117.168 253.313 122.305Z" fill="url(#paint30_linear_1678_7598)"/>
<path opacity="0.35" d="M248.582 133.41C248.456 136.346 248.224 139.254 247.887 142.134L242.071 141.481C242.071 141.481 242.071 141.396 242.071 141.354C242.166 140.532 242.25 139.721 242.324 138.889C242.661 135.317 242.84 131.703 242.84 128.036V127.973C242.84 127.731 242.84 127.488 242.84 127.246C242.84 126.719 242.84 126.192 242.84 125.697C242.757 121.469 242.444 117.248 241.902 113.054L247.708 112.348C248.034 114.887 248.277 117.437 248.445 120.018L251.143 119.734C250.911 116.299 250.553 112.906 250.089 109.556C249.351 109.629 239.932 110.788 239.1 110.904C239.778 115.336 240.19 119.804 240.332 124.285C240.375 125.543 240.396 126.796 240.396 128.047C240.396 128.384 240.396 128.721 240.396 129.1C240.36 133.982 240.008 138.857 239.342 143.693C240.153 143.809 249.467 144.884 250.331 144.979C250.837 141.291 251.185 137.551 251.385 133.757L248.582 133.41Z" fill="url(#paint31_linear_1678_7598)"/>
<path opacity="0.35" d="M245.422 83.8579L239.616 86.2497C238.731 83.8615 237.772 81.5118 236.74 79.2009L234.359 80.2545C235.676 83.2152 236.898 86.2496 237.983 89.3578L248.646 85.1433C246.582 79.4787 244.118 73.9683 241.27 68.654C238.501 63.3039 235.357 58.1564 231.862 53.25L222.379 59.5718C224.423 62.3814 226.344 65.307 228.142 68.3484L230.376 67.0104C228.971 64.6011 227.464 62.2515 225.856 59.9616L231.029 56.59C233.963 60.8237 236.647 65.2248 239.068 69.7709C241.459 74.3385 243.581 79.0422 245.422 83.8579Z" fill="url(#paint32_linear_1678_7598)"/>
<path opacity="0.35" d="M244.368 95.8693C245.148 98.679 245.825 101.513 246.401 104.372L240.67 105.552C240.665 105.514 240.665 105.475 240.67 105.436C240.501 104.625 240.332 103.814 240.143 103.002C239.363 99.4902 238.408 95.9992 237.277 92.5293C237.282 92.5084 237.282 92.4868 237.277 92.466C237.214 92.2342 237.14 92.0025 237.077 91.7707C236.898 91.2755 236.729 90.7908 236.55 90.3061C235.161 86.3066 233.557 82.3849 231.745 78.5581L237.014 76.1032C238.067 78.4107 239.121 80.7708 240.09 83.1625L242.556 82.1089C241.277 78.9129 239.872 75.7976 238.341 72.7632C237.667 73.0687 229.059 77.0725 228.311 77.4412C230.311 81.4486 232.071 85.5722 233.579 89.7899C234 90.9699 234.411 92.15 234.801 93.3406L235.106 94.3098C236.573 98.965 237.741 103.709 238.605 108.513C239.405 108.365 248.593 106.521 249.457 106.332C248.79 102.672 247.954 99.0125 246.949 95.3529L244.368 95.8693Z" fill="url(#paint33_linear_1678_7598)"/>
<path opacity="0.35" d="M226.034 49.7313L221.261 53.7983C219.667 51.7964 218.027 49.8612 216.341 47.9928L214.402 49.7313C216.573 52.1406 218.68 54.6553 220.724 57.2753L229.543 49.8999C225.837 45.1525 221.798 40.6737 217.458 36.4977C213.177 32.2649 208.599 28.3425 203.761 24.7603L196.712 33.6951C199.522 35.7532 202.251 37.9412 204.899 40.2592L206.616 38.2995C204.509 36.4451 202.349 34.6855 200.136 33.0313L204.024 28.2267C208.118 31.3428 212.027 34.6956 215.73 38.2678C219.386 41.8838 222.827 45.7115 226.034 49.7313Z" fill="url(#paint34_linear_1678_7598)"/>
<path opacity="0.35" d="M228.774 61.4684C230.396 63.9198 231.917 66.4064 233.336 68.9281L228.247 71.8255V71.7202C227.836 71.0037 227.425 70.2873 227.004 69.6129C225.171 66.5258 223.19 63.4914 221.03 60.5307L220.619 59.9406C220.303 59.5191 219.976 59.1083 219.66 58.7079C217.107 55.3322 214.374 52.0963 211.473 49.0144L215.762 45.0422C217.511 46.8966 219.207 48.8249 220.861 50.8057L222.874 49.0039C220.675 46.3558 218.385 43.8201 216.004 41.3967C215.456 41.9025 208.513 48.3718 207.912 48.9513C211.062 52.1427 214.018 55.5203 216.763 59.0661C217.532 60.046 218.29 61.0469 219.028 62.0584L219.607 62.8802C222.448 66.8533 225.027 71.0063 227.33 75.3131C228.047 74.9233 236.223 70.3294 236.982 69.8869C235.212 66.6101 233.294 63.3754 231.197 60.2145L228.774 61.4684Z" fill="url(#paint35_linear_1678_7598)"/>
<path opacity="0.35" d="M197.061 23.2645L193.774 28.6169C191.666 27.205 189.485 25.867 187.294 24.6027L185.987 26.8679C188.797 28.4764 191.561 30.2324 194.279 32.136L200.401 22.4321C195.409 19.0594 190.184 16.0456 184.765 13.4131C179.379 10.717 173.809 8.40372 168.097 6.49072L164.156 17.1745C167.465 18.2492 170.734 19.4855 173.966 20.8833L175.019 18.4916C172.448 17.3747 169.849 16.3597 167.222 15.4466L169.424 9.6727C174.284 11.3746 179.041 13.3588 183.669 15.6152C188.277 17.9039 192.749 20.458 197.061 23.2645Z" fill="url(#paint36_linear_1678_7598)"/>
<path opacity="0.35" d="M203.276 33.5784C205.573 35.4117 207.789 37.3083 209.924 39.268C209.619 39.6157 206.394 43.1453 205.983 43.5879L205.899 43.5142C205.288 42.9557 204.677 42.3974 204.045 41.8495C201.362 39.4823 198.552 37.2169 195.616 35.0535H195.553L194.984 34.6111L193.698 33.7365C190.227 31.3138 186.625 29.0838 182.909 27.0565C183.152 26.635 185.533 22.3679 185.764 21.9464C187.998 23.1686 190.207 24.4716 192.392 25.8553L193.751 23.5163C190.836 21.683 187.875 19.9797 184.869 18.4062C184.5 19.0595 179.896 27.362 179.506 28.089C183.502 30.1506 187.372 32.4481 191.096 34.9693C192.149 35.6646 193.203 36.3811 194.172 37.0765L194.984 37.677C198.907 40.5984 202.64 43.7657 206.163 47.1597C206.732 46.5696 213.074 39.6684 213.664 39.0257C210.974 36.4478 208.165 33.9894 205.235 31.6503L203.276 33.5784Z" fill="url(#paint37_linear_1678_7598)"/>
<path opacity="0.35" d="M161.31 7.04806L159.835 13.1486C157.384 12.4462 154.925 11.842 152.46 11.3363L151.923 13.8966C155.097 14.5639 158.258 15.3682 161.405 16.3095L164.229 5.18312C158.439 3.51997 152.538 2.26998 146.57 1.44268C140.614 0.531714 134.599 0.0528345 128.574 0.00976562L128.121 11.3785C131.598 11.3785 135.096 11.547 138.605 11.8736L138.847 9.28174C136.055 9.01834 133.263 8.86033 130.492 8.79712L130.808 2.63329C135.952 2.74565 141.085 3.16085 146.18 3.87663C151.282 4.63534 156.334 5.69433 161.31 7.04806Z" fill="url(#paint38_linear_1678_7598)"/>
<path opacity="0.35" d="M170.425 14.9397C173.186 15.9933 175.873 17.047 178.507 18.2903L176.083 23.6216H175.978L173.713 22.568C170.411 21.1631 167.022 19.8812 163.545 18.7222H163.482L162.797 18.4799L161.312 18.0478C157.261 16.818 153.145 15.812 148.984 15.0345C149.079 14.5498 150.038 9.7664 150.111 9.29226C152.619 9.7664 155.127 10.3458 157.634 10.957L158.193 8.31233C154.863 7.46943 151.513 6.7635 148.173 6.20508C148.025 6.93208 146.213 16.2462 146.065 17.068C150.49 17.7959 154.867 18.788 159.173 20.0392C160.374 20.3869 161.575 20.7451 162.766 21.0928L163.724 21.4195C168.355 22.9668 172.881 24.8109 177.274 26.9405C177.622 26.203 181.488 17.6791 181.889 16.8783C178.538 15.2557 175.086 13.7772 171.532 12.4426L170.425 14.9397Z" fill="url(#paint39_linear_1678_7598)"/>
</g>
</g>
<defs>
<linearGradient id="paint0_linear_1678_7598" x1="77.9376" y1="-33.7163" x2="279.993" y2="247.423" gradientUnits="userSpaceOnUse">
<stop stop-color="#F1A17C" stop-opacity="0.94"/>
<stop offset="1" stop-color="#EB5B8B" stop-opacity="0.36"/>
</linearGradient>
<linearGradient id="paint1_linear_1678_7598" x1="-72660.5" y1="23078.1" x2="-71493.6" y2="27758.5" gradientUnits="userSpaceOnUse">
<stop stop-color="#F1A17C" stop-opacity="0.94"/>
<stop offset="1" stop-color="#EB5B8B" stop-opacity="0.36"/>
</linearGradient>
<linearGradient id="paint2_linear_1678_7598" x1="-75550.5" y1="50074.6" x2="-71186.6" y2="58421.8" gradientUnits="userSpaceOnUse">
<stop stop-color="#F1A17C" stop-opacity="0.94"/>
<stop offset="1" stop-color="#EB5B8B" stop-opacity="0.36"/>
</linearGradient>
<linearGradient id="paint3_linear_1678_7598" x1="-74289.1" y1="40104.5" x2="-71208.2" y2="47351.7" gradientUnits="userSpaceOnUse">
<stop stop-color="#F1A17C" stop-opacity="0.94"/>
<stop offset="1" stop-color="#EB5B8B" stop-opacity="0.36"/>
</linearGradient>
<linearGradient id="paint4_linear_1678_7598" x1="-69034.4" y1="63315.7" x2="-62719.2" y2="72018" gradientUnits="userSpaceOnUse">
<stop stop-color="#F1A17C" stop-opacity="0.94"/>
<stop offset="1" stop-color="#EB5B8B" stop-opacity="0.36"/>
</linearGradient>
<linearGradient id="paint5_linear_1678_7598" x1="-71469" y1="55733.8" x2="-66216.2" y2="64261.2" gradientUnits="userSpaceOnUse">
<stop stop-color="#F1A17C" stop-opacity="0.94"/>
<stop offset="1" stop-color="#EB5B8B" stop-opacity="0.36"/>
</linearGradient>
<linearGradient id="paint6_linear_1678_7598" x1="-55192" y1="70664" x2="-47857.5" y2="77885.8" gradientUnits="userSpaceOnUse">
<stop stop-color="#F1A17C" stop-opacity="0.94"/>
<stop offset="1" stop-color="#EB5B8B" stop-opacity="0.36"/>
</linearGradient>
<linearGradient id="paint7_linear_1678_7598" x1="-61439.2" y1="66202.9" x2="-54613.8" y2="74199.9" gradientUnits="userSpaceOnUse">
<stop stop-color="#F1A17C" stop-opacity="0.94"/>
<stop offset="1" stop-color="#EB5B8B" stop-opacity="0.36"/>
</linearGradient>
<linearGradient id="paint8_linear_1678_7598" x1="-35447" y1="71015.9" x2="-28866.1" y2="75149.6" gradientUnits="userSpaceOnUse">
<stop stop-color="#F1A17C" stop-opacity="0.94"/>
<stop offset="1" stop-color="#EB5B8B" stop-opacity="0.36"/>
</linearGradient>
<linearGradient id="paint9_linear_1678_7598" x1="-44812.8" y1="70098.8" x2="-37731.4" y2="75802.2" gradientUnits="userSpaceOnUse">
<stop stop-color="#F1A17C" stop-opacity="0.94"/>
<stop offset="1" stop-color="#EB5B8B" stop-opacity="0.36"/>
</linearGradient>
<linearGradient id="paint10_linear_1678_7598" x1="-37403.9" y1="71695.2" x2="-30683.9" y2="76102.4" gradientUnits="userSpaceOnUse">
<stop stop-color="#F1A17C" stop-opacity="0.94"/>
<stop offset="1" stop-color="#EB5B8B" stop-opacity="0.36"/>
</linearGradient>
<linearGradient id="paint11_linear_1678_7598" x1="-26790.6" y1="69850.8" x2="-21179.9" y2="72558.3" gradientUnits="userSpaceOnUse">
<stop stop-color="#F1A17C" stop-opacity="0.94"/>
<stop offset="1" stop-color="#EB5B8B" stop-opacity="0.36"/>
</linearGradient>
<linearGradient id="paint12_linear_1678_7598" x1="-57774.2" y1="71720.4" x2="-50471.6" y2="79114.6" gradientUnits="userSpaceOnUse">
<stop stop-color="#F1A17C" stop-opacity="0.94"/>
<stop offset="1" stop-color="#EB5B8B" stop-opacity="0.36"/>
</linearGradient>
<linearGradient id="paint13_linear_1678_7598" x1="-46375.5" y1="70847.2" x2="-39277.5" y2="76689.1" gradientUnits="userSpaceOnUse">
<stop stop-color="#F1A17C" stop-opacity="0.94"/>
<stop offset="1" stop-color="#EB5B8B" stop-opacity="0.36"/>
</linearGradient>
<linearGradient id="paint14_linear_1678_7598" x1="-72204.1" y1="64662.5" x2="-65986.1" y2="73398.3" gradientUnits="userSpaceOnUse">
<stop stop-color="#F1A17C" stop-opacity="0.94"/>
<stop offset="1" stop-color="#EB5B8B" stop-opacity="0.36"/>
</linearGradient>
<linearGradient id="paint15_linear_1678_7598" x1="-63866.3" y1="67338.8" x2="-57111.6" y2="75396.7" gradientUnits="userSpaceOnUse">
<stop stop-color="#F1A17C" stop-opacity="0.94"/>
<stop offset="1" stop-color="#EB5B8B" stop-opacity="0.36"/>
</linearGradient>
<linearGradient id="paint16_linear_1678_7598" x1="-79344.5" y1="50899.8" x2="-75149.6" y2="59148" gradientUnits="userSpaceOnUse">
<stop stop-color="#F1A17C" stop-opacity="0.94"/>
<stop offset="1" stop-color="#EB5B8B" stop-opacity="0.36"/>
</linearGradient>
<linearGradient id="paint17_linear_1678_7598" x1="-74858.8" y1="56934.7" x2="-69722.4" y2="65444" gradientUnits="userSpaceOnUse">
<stop stop-color="#F1A17C" stop-opacity="0.94"/>
<stop offset="1" stop-color="#EB5B8B" stop-opacity="0.36"/>
</linearGradient>
<linearGradient id="paint18_linear_1678_7598" x1="-78356" y1="32189.5" x2="-76424.7" y2="38150.6" gradientUnits="userSpaceOnUse">
<stop stop-color="#F1A17C" stop-opacity="0.94"/>
<stop offset="1" stop-color="#EB5B8B" stop-opacity="0.36"/>
</linearGradient>
<linearGradient id="paint19_linear_1678_7598" x1="-77922.6" y1="41179.4" x2="-74926.7" y2="48347.4" gradientUnits="userSpaceOnUse">
<stop stop-color="#F1A17C" stop-opacity="0.94"/>
<stop offset="1" stop-color="#EB5B8B" stop-opacity="0.36"/>
</linearGradient>
<linearGradient id="paint20_linear_1678_7598" x1="-77683.4" y1="33427" x2="-75586.9" y2="39620" gradientUnits="userSpaceOnUse">
<stop stop-color="#F1A17C" stop-opacity="0.94"/>
<stop offset="1" stop-color="#EB5B8B" stop-opacity="0.36"/>
</linearGradient>
<linearGradient id="paint21_linear_1678_7598" x1="-76395.9" y1="24238.4" x2="-75229.3" y2="28918.9" gradientUnits="userSpaceOnUse">
<stop stop-color="#F1A17C" stop-opacity="0.94"/>
<stop offset="1" stop-color="#EB5B8B" stop-opacity="0.36"/>
</linearGradient>
<linearGradient id="paint22_linear_1678_7598" x1="-76392.4" y1="50820.9" x2="-72024.8" y2="59169.1" gradientUnits="userSpaceOnUse">
<stop stop-color="#F1A17C" stop-opacity="0.94"/>
<stop offset="1" stop-color="#EB5B8B" stop-opacity="0.36"/>
</linearGradient>
<linearGradient id="paint23_linear_1678_7598" x1="-76165.9" y1="41155.9" x2="-73085" y2="48403.1" gradientUnits="userSpaceOnUse">
<stop stop-color="#F1A17C" stop-opacity="0.94"/>
<stop offset="1" stop-color="#EB5B8B" stop-opacity="0.36"/>
</linearGradient>
<linearGradient id="paint24_linear_1678_7598" x1="-67805.9" y1="62704.3" x2="-61491.3" y2="71408.6" gradientUnits="userSpaceOnUse">
<stop stop-color="#F1A17C" stop-opacity="0.94"/>
<stop offset="1" stop-color="#EB5B8B" stop-opacity="0.36"/>
</linearGradient>
<linearGradient id="paint25_linear_1678_7598" x1="-71235.1" y1="55877" x2="-65981.6" y2="64403.2" gradientUnits="userSpaceOnUse">
<stop stop-color="#F1A17C" stop-opacity="0.94"/>
<stop offset="1" stop-color="#EB5B8B" stop-opacity="0.36"/>
</linearGradient>
<linearGradient id="paint26_linear_1678_7598" x1="-52710.5" y1="68453.5" x2="-45378.3" y2="75675.4" gradientUnits="userSpaceOnUse">
<stop stop-color="#F1A17C" stop-opacity="0.94"/>
<stop offset="1" stop-color="#EB5B8B" stop-opacity="0.36"/>
</linearGradient>
<linearGradient id="paint27_linear_1678_7598" x1="-59522.4" y1="64903.1" x2="-52696.2" y2="72895.2" gradientUnits="userSpaceOnUse">
<stop stop-color="#F1A17C" stop-opacity="0.94"/>
<stop offset="1" stop-color="#EB5B8B" stop-opacity="0.36"/>
</linearGradient>
<linearGradient id="paint28_linear_1678_7598" x1="-33011.7" y1="67556.4" x2="-26430.7" y2="71690.2" gradientUnits="userSpaceOnUse">
<stop stop-color="#F1A17C" stop-opacity="0.94"/>
<stop offset="1" stop-color="#EB5B8B" stop-opacity="0.36"/>
</linearGradient>
<linearGradient id="paint29_linear_1678_7598" x1="-42346" y1="67384" x2="-35264.7" y2="73087.4" gradientUnits="userSpaceOnUse">
<stop stop-color="#F1A17C" stop-opacity="0.94"/>
<stop offset="1" stop-color="#EB5B8B" stop-opacity="0.36"/>
</linearGradient>
<linearGradient id="paint30_linear_1678_7598" x1="-34297.6" y1="67300.3" x2="-27576.4" y2="71707" gradientUnits="userSpaceOnUse">
<stop stop-color="#F1A17C" stop-opacity="0.94"/>
<stop offset="1" stop-color="#EB5B8B" stop-opacity="0.36"/>
</linearGradient>
<linearGradient id="paint31_linear_1678_7598" x1="-24745.6" y1="66098.1" x2="-19135" y2="68805.5" gradientUnits="userSpaceOnUse">
<stop stop-color="#F1A17C" stop-opacity="0.94"/>
<stop offset="1" stop-color="#EB5B8B" stop-opacity="0.36"/>
</linearGradient>
<linearGradient id="paint32_linear_1678_7598" x1="-52704" y1="66831.1" x2="-45399.2" y2="74225.3" gradientUnits="userSpaceOnUse">
<stop stop-color="#F1A17C" stop-opacity="0.94"/>
<stop offset="1" stop-color="#EB5B8B" stop-opacity="0.36"/>
</linearGradient>
<linearGradient id="paint33_linear_1678_7598" x1="-42515.9" y1="66353" x2="-35417.8" y2="72195" gradientUnits="userSpaceOnUse">
<stop stop-color="#F1A17C" stop-opacity="0.94"/>
<stop offset="1" stop-color="#EB5B8B" stop-opacity="0.36"/>
</linearGradient>
<linearGradient id="paint34_linear_1678_7598" x1="-65970.1" y1="60168.2" x2="-59754.1" y2="68901.2" gradientUnits="userSpaceOnUse">
<stop stop-color="#F1A17C" stop-opacity="0.94"/>
<stop offset="1" stop-color="#EB5B8B" stop-opacity="0.36"/>
</linearGradient>
<linearGradient id="paint35_linear_1678_7598" x1="-58427.1" y1="62817.9" x2="-51670" y2="70876.3" gradientUnits="userSpaceOnUse">
<stop stop-color="#F1A17C" stop-opacity="0.94"/>
<stop offset="1" stop-color="#EB5B8B" stop-opacity="0.36"/>
</linearGradient>
<linearGradient id="paint36_linear_1678_7598" x1="-73221.2" y1="47614.9" x2="-69028.6" y2="55860.1" gradientUnits="userSpaceOnUse">
<stop stop-color="#F1A17C" stop-opacity="0.94"/>
<stop offset="1" stop-color="#EB5B8B" stop-opacity="0.36"/>
</linearGradient>
<linearGradient id="paint37_linear_1678_7598" x1="-68888.8" y1="53340.5" x2="-63735.9" y2="61858.5" gradientUnits="userSpaceOnUse">
<stop stop-color="#F1A17C" stop-opacity="0.94"/>
<stop offset="1" stop-color="#EB5B8B" stop-opacity="0.36"/>
</linearGradient>
<linearGradient id="paint38_linear_1678_7598" x1="-73609.3" y1="30463.4" x2="-71673.2" y2="36431" gradientUnits="userSpaceOnUse">
<stop stop-color="#F1A17C" stop-opacity="0.94"/>
<stop offset="1" stop-color="#EB5B8B" stop-opacity="0.36"/>
</linearGradient>
<linearGradient id="paint39_linear_1678_7598" x1="-72751.2" y1="38651.9" x2="-69775.8" y2="45804.6" gradientUnits="userSpaceOnUse">
<stop stop-color="#F1A17C" stop-opacity="0.94"/>
<stop offset="1" stop-color="#EB5B8B" stop-opacity="0.36"/>
</linearGradient>
</defs>
</svg>
