<svg fill="none" height="22" viewBox="0 0 22 22" width="22" xmlns="http://www.w3.org/2000/svg"><g stroke-linecap="round" stroke-miterlimit="10" stroke-width="1.5"><path d="m9.25201 12.4282-7.25984-3.848c-.29955-.15878-.5502-.39617-.725-.68666-.17481-.29049-.26717-.62313-.26717-.96216s.09236-.67166.26717-.96216c.1748-.29049.42545-.52787.725-.68664l7.25984-3.84801c.53841-.28538 1.13849-.43457 1.74789-.43457.6093 0 1.2094.14919 1.7479.43457l7.2598 3.84801c.2996.15877.5502.39615.725.68664.1748.2905.2672.62313.2672.96216s-.0924.67167-.2672.96216-.4254.52788-.725.68666l-7.3112 3.8993c-.5335.2773-1.1275.4178-1.7287.4089-.6012-.009-1.1907-.1671-1.71569-.4602z" stroke="#686868"/><path d="m20.0076 13.4197c.2996.1588.5502.3961.725.6866s.2672.6231.2672.9622c0 .339-.0924.6716-.2672.9621s-.4254.5279-.725.6867l-7.2598 3.848c-.5384.2854-1.1385.4346-1.7479.4346s-1.20946-.1492-1.74787-.4346l-7.25986-3.848c-.29955-.1588-.55018-.3962-.72499-.6867-.1748-.2905-.26718-.6231-.26718-.9621 0-.3391.09238-.6717.26718-.9622.17481-.2905.42544-.5278.72499-.6866" stroke="#b5b5b5"/></g></svg>