<svg width="24" height="24" viewBox="0 0 24 24" fill="none" xmlns="http://www.w3.org/2000/svg">
<path d="M10.252 13.4282L2.99217 9.5802C2.69262 9.42142 2.44197 9.18403 2.26717 8.89354C2.09236 8.60305 2 8.27041 2 7.93138C2 7.59235 2.09236 7.25972 2.26717 6.96922C2.44197 6.67873 2.69262 6.44135 2.99217 6.28258L10.252 2.43457C10.7904 2.14919 11.3905 2 11.9999 2C12.6092 2 13.2093 2.14919 13.7478 2.43457L21.0076 6.28258C21.3072 6.44135 21.5578 6.67873 21.7326 6.96922C21.9074 7.25972 21.9998 7.59235 21.9998 7.93138C21.9998 8.27041 21.9074 8.60305 21.7326 8.89354C21.5578 9.18403 21.3072 9.42142 21.0076 9.5802L13.6964 13.4795C13.1629 13.7568 12.5689 13.8973 11.9677 13.8884C11.3665 13.8794 10.777 13.7213 10.252 13.4282Z" stroke="#686868" stroke-width="1.5" stroke-miterlimit="10" stroke-linecap="round"/>
<path d="M21.0076 14.4199C21.3072 14.5787 21.5578 14.8161 21.7326 15.1066C21.9074 15.3971 21.9998 15.7297 21.9998 16.0687C21.9998 16.4078 21.9074 16.7404 21.7326 17.0309C21.5578 17.3214 21.3072 17.5588 21.0076 17.7175L13.7478 21.5655C13.2094 21.8509 12.6093 22.0001 11.9999 22.0001C11.3905 22.0001 10.7904 21.8509 10.252 21.5655L2.99217 17.7175C2.69262 17.5588 2.44199 17.3214 2.26718 17.0309C2.09238 16.7404 2 16.4078 2 16.0687C2 15.7297 2.09238 15.3971 2.26718 15.1066C2.44199 14.8161 2.69262 14.5787 2.99217 14.4199" stroke="#B5B5B5" stroke-width="1.5" stroke-miterlimit="10" stroke-linecap="round"/>
</svg>
