<svg fill="none" height="20" viewBox="0 0 22 20" width="22" xmlns="http://www.w3.org/2000/svg" xmlns:xlink="http://www.w3.org/1999/xlink"><linearGradient id="a" gradientUnits="userSpaceOnUse" x1="1.01758" x2="21.0176" y1="5.81043" y2="5.81043"><stop offset="0" stop-color="#ff9574"/><stop offset="1" stop-color="#ff4c8c"/></linearGradient><path d="m9.62093 10.7657-7.25994-3.84808c-.17915-.09496-.32906-.23694-.43362-.4107-.10455-.17375-.15979-.37269-.15979-.57546 0-.20278.05524-.40172.15979-.57547s.25447-.31574.43362-.4107l7.25994-3.84803c.43017-.228037.90977-.34726 1.39667-.34726s.9664.119222 1.3966.34725l7.26 3.84804c.1791.09496.329.23695.4336.4107.1045.17375.1598.37269.1598.57547 0 .20277-.0553.40171-.1598.57546-.1046.17376-.2545.31574-.4336.41071l-7.26 3.84807c-.4302.228-.9097.3472-1.3966.3472s-.9664-.1192-1.39667-.3472z" stroke="url(#a)" stroke-width="1.5"/><path d="m11 20.0001c-.7036-.0001-1.39653-.1723-2.01832-.5016l-6.61139-3.5049c-.41899-.2221-.76956-.554-1.01408-.9603s-.373743-.8715-.373788-1.3457c-.000045-.4741.129088-.9394.373528-1.3457s.59496-.7383 1.0139-.9604c.10558-.0561.22116-.0908.34016-.1022.11899-.0114.23906.0008.35336.0358s.22058.0922.31277.1683c.0922.076.1685.1696.22456.2751.05606.1056.09078.2212.10217.3402.01138.119-.00078.2391-.03579.3533-.03502.1143-.0922.2206-.16829.3128s-.16959.1685-.27517.2246c-.12669.0671-.23271.1674-.30667.2903-.07395.1228-.11306.2634-.1131.4068-.00005.1433.03896.284.11284.4069.07387.1229.17983.2233.30648.2905l6.61139 3.5049c.35894.1905.75914.2901 1.16554.2901.4063 0 .8065-.0996 1.1655-.2901l6.6113-3.5049c.1267-.0672.2326-.1676.3065-.2905s.1129-.2635.1129-.4069c-.0001-.1434-.0392-.284-.1131-.4068-.074-.1229-.18-.2232-.3067-.2903-.1056-.0561-.1991-.1324-.2752-.2246s-.1332-.1985-.1683-.3128c-.035-.1142-.0471-.2343-.0358-.3533.0114-.119.0462-.2346.1022-.3402.0561-.1055.1324-.1991.2246-.2751.0922-.0761.1984-.1333.3127-.1683s.2344-.0472.3534-.0358.2346.0461.3402.1022c.4189.2221.7694.5541 1.0139.9604.2444.4064.3735.8716.3735 1.3457-.0001.4742-.1293.9394-.3738 1.3457s-.5951.7382-1.0141.9603l-6.6114 3.5049c-.6218.3294-1.3147.5016-2.0184.5016z" fill="#fff"/></svg>