<svg fill="none" height="24" viewBox="0 0 24 24" width="24" xmlns="http://www.w3.org/2000/svg"><g stroke-linecap="round" stroke-miterlimit="10" stroke-width="1.5"><path d="m2.00011 11.8773c-.006-.9143.23886-1.8128.70794-2.59763.46909-.78485 1.14443-1.42604 1.95255-1.8538l7.2648-3.84819c.5803-.30735 1.2154-.49741 1.8691-.55931.6537-.06191 1.3131.00554 1.9407.1985.6277.19296 1.2111.50765 1.7171.9261s.9246.93247 1.232 1.51271l.751 1.41777c.1023.19308.192.3926.2685.59731" stroke="#686868"/><path d="m17 6.87744h-10c-2.76142 0-5 2.23858-5 4.99996v4.1275c0 2.7614 2.23858 5 5 5h10c2.7614 0 5-2.2386 5-5v-4.1275c0-2.76138-2.2386-4.99996-5-4.99996z" stroke="#686868"/><path d="m14.7198 13.9412h-5.43953" stroke="#b5b5b5"/></g></svg>