<svg
  width="24"
  height="24"
  fill="none"
  xmlns="http://www.w3.org/2000/svg"
>
  <rect
    opacity=".7"
    width="24"
    height="24"
    rx="12"
    fill="#627EEA"
  />
  <g clip-path="url(#prefix__clip0_663_859)">
    <path
      d="M11.999 3.556l-.114.364V14.5l.114.107 5.183-2.903L12 3.556z"
      fill="#C1CCF7"
    />
    <path
      d="M12 3.556l-5.185 8.148L12 14.607V3.556z"
      fill="#fff"
    />
    <path
      d="M11.998 15.55l-.063.074v3.769l.063.177 5.187-6.92-5.187 2.9z"
      fill="#C1CCF7"
    />
    <path
      d="M12 19.57v-4.02l-5.185-2.9L12 19.57z"
      fill="#fff"
    />
    <path
      d="M11.998 14.597l5.184-2.903-5.184-2.232v5.135z"
      fill="#8399EF"
    />
    <path
      d="M6.815 11.694L12 14.597V9.462l-5.184 2.232z"
      fill="#C1CCF7"
    />
  </g>
  <defs>
    <clipPath id="prefix__clip0_663_859">
      <rect
        x="3.556"
        y="3.556"
        width="16.889"
        height="16"
        rx="8"
        fill="#fff"
      />
    </clipPath>
  </defs>
</svg>
