<svg
  viewBox="0 0 35 34"
  width="35"
  height="34"
  fill="none"
  xmlns="http://www.w3.org/2000/svg"
>
  <path
    fill-rule="evenodd"
    clip-rule="evenodd"
    d="M24.042 1.077A19.873 19.873 0 0017.522 0a20.135 20.135 0 00-6.543 1.077 16.586 16.586 0 00-5.599 3.22 15.75 15.75 0 00-3.907 5.291 17.061 17.061 0 00-1.47 7.264c-.05 2.49.452 4.96 1.47 7.232a15.862 15.862 0 003.907 5.262 16.52 16.52 0 005.6 3.213 19.971 19.971 0 006.55 1.08 19.713 19.713 0 006.512-1.08 16.571 16.571 0 005.563-3.207 15.78 15.78 0 003.919-5.268 16.841 16.841 0 001.473-7.232 17.06 17.06 0 00-1.485-7.264 15.668 15.668 0 00-3.907-5.291 16.638 16.638 0 00-5.563-3.22zm-.158 30.52a15.52 15.52 0 01-6.36 1.266h.003-.006.003a15.518 15.518 0 01-6.36-1.263 14.959 14.959 0 01-8.081-8.52 17.43 17.43 0 01-1.11-6.259 17.42 17.42 0 011.11-6.25 14.958 14.958 0 018.082-8.52A15.519 15.519 0 0117.528.779c2.19-.035 4.362.395 6.374 1.26a14.773 14.773 0 014.869 3.438 15.447 15.447 0 013.116 5.091 17.343 17.343 0 011.11 6.253 17.364 17.364 0 01-1.11 6.26 15.444 15.444 0 01-3.134 5.078 14.818 14.818 0 01-4.869 3.438zm-.021-19.547a5.8 5.8 0 011.183 2.157l-.009-.003a9.458 9.458 0 010 5.31 5.81 5.81 0 01-1.183 2.149 5.523 5.523 0 01-2.07 1.442c-.833.35-2.13.523-4.26.523v-.182c2.566 0 3.816-1.029 4.772-2.264.779-1.004 1.162-2.438 1.162-4.306 0-1.868-.39-3.295-1.162-4.303-.773-1.007-1.945-1.576-3.512-1.576h-5.392v5.343h3.229a1.467 1.467 0 001.363-.916V15.4h.18v2.864h-.18v-.025a1.482 1.482 0 00-.548-.67 1.442 1.442 0 00-.815-.246h-3.229v4.65c.005.286.095.565.259.8.164.246.398.437.672.548l.356.134v.176h-4.515v-.176l.359-.134c.272-.112.505-.303.67-.548a1.45 1.45 0 00.243-.8v-9.92c0-.676-.083-.946-.247-1.193a1.467 1.467 0 00-.67-.547l-.358-.134v-.18h8.623c1.034.001 2.057.208 3.01.609.791.314 1.5.808 2.069 1.442z"
    fill="url(#logo-mobile)"
  />
  <defs>
    <linearGradient
      id="logo-mobile"
      x1="15.632"
      y1="0"
      x2="15.632"
      y2="33.639"
      gradientUnits="userSpaceOnUse"
    >
      <stop stop-color="#FF7474" />
      <stop
        offset="1"
        stop-color="#FF4C8C"
      />
    </linearGradient>
  </defs>
</svg>
