<svg fill="none" height="32" viewBox="0 0 32 32" width="32" xmlns="http://www.w3.org/2000/svg" xmlns:xlink="http://www.w3.org/1999/xlink"><linearGradient id="a"><stop offset="0" stop-color="#ff9574"/><stop offset="1" stop-color="#ff4c8c"/></linearGradient><linearGradient id="b" gradientUnits="userSpaceOnUse" x1="0" x2="32" xlink:href="#a" y1="15.674" y2="15.674"/><linearGradient id="c" gradientUnits="userSpaceOnUse" x1="8.034" x2="22.344" xlink:href="#a" y1="15.828" y2="15.828"/><rect height="31" rx="3.5" stroke="url(#b)" width="31" x=".5" y=".5"/><path clip-rule="evenodd" d="m16.4329 7.53454.3333 3.03336c.7-.0889 2.4067-.0534 3.6333.8l1.4-2.96669c-.7-.41111-2.7533-1.16-5.3666-.86667zm-.9651.16794.3 3.03332c-.4445.1556-1.48.5934-2.0667 1.1l-2.3333-1.99998c.5-.5 2.02-1.62667 4.1-2.13334zm-2.535 4.83202-2.2667-2c-1.06665.96-1.8222 2.6-2.06664 3.3l3.23334.6333c.1333-.6133.7889-1.5444 1.1-1.9333zm-1.4 2.9333-3.23334-.6333c-.48 1.7333-.2 3.7445 0 4.5333l2.86664-.7.3-1.0666zm-.0348 5.6327.9666-3.3666v-1.2667c2.0778.1556 6.8934.0533 9.5334-1.6.2666.5.3866.8867.3333 4.1667h-1v-.9334h-5.7c-.2111 1.0667-1.3333 3.16-4.1333 3zm7.7003-1.9983h-2.2c-.2934 4.1334 2.9667 5.3445 4.6333 5.4334v-2.8334l-2.4333-1.7zm-6.6001-3.6676c2.0667.1333 6.76.02 9-1.5-.5444-.9445-2.2666-2.74-4.8-2.3667-3.1666.4667-4.2 3.2667-4.2 3.8667z" fill="url(#c)" fill-rule="evenodd"/></svg>