<svg fill="none" height="24" width="24" xmlns="http://www.w3.org/2000/svg"><path d="M.8 20.8h22.4M12 17.6v3.2M12 17.6a7.2 7.2 0 100-14.4 7.2 7.2 0 000 14.4z" stroke="currentColor" stroke-width="1.5" stroke-linecap="round"/><path d="M12 17.6c1.767 0 3.2-3.224 3.2-7.2 0-3.977-1.433-7.2-3.2-7.2-1.767 0-3.2 3.223-3.2 7.2 0 3.976 1.433 7.2 3.2 7.2z" stroke="currentColor" stroke-width="1.5" stroke-linecap="round"/><path d="M6.4 14s2.8-.8 5.6-.8 5.6.8 5.6.8M6.4 6.8s2.8.8 5.6.8 5.6-.8 5.6-.8" stroke="currentColor" stroke-width="1.5" stroke-linecap="round"/></svg>