<svg fill="none" height="64" viewBox="0 0 49 64" width="49" xmlns="http://www.w3.org/2000/svg" xmlns:xlink="http://www.w3.org/1999/xlink"><linearGradient id="a"><stop offset="0" stop-color="#ff9574"/><stop offset="1" stop-color="#ff4c8c"/></linearGradient><linearGradient id="b" gradientUnits="userSpaceOnUse" x1="0" x2="48.212" xlink:href="#a" y1="41.551" y2="41.551"/><linearGradient id="c" gradientUnits="userSpaceOnUse" x1="20" x2="28" xlink:href="#a" y1="15.469" y2="15.469"/><linearGradient id="d" gradientUnits="userSpaceOnUse" x1="16" x2="32" xlink:href="#a" y1="5.388" y2="5.388"/><path clip-rule="evenodd" d="m24.1058 20h-5.4783c-.3269 0-.6331.1597-.8201.4278l-14.70155 21.0722c-3.271638 4.3126-6.35751 13.747 4.09722 20.2761 2.76049 1.724 6.07703 2.2239 9.33163 2.2239h7.5711 7.5711c3.2546 0 6.5712-.4999 9.3317-2.2239 10.4547-6.5291 7.3689-15.9635 4.0972-20.2761l-14.7015-21.0722c-.187-.2681-.4933-.4278-.8201-.4278z" fill="url(#b)" fill-rule="evenodd"/><rect fill="url(#c)" height="3" rx="1.5" width="8" x="20" y="14"/><path d="m24.4511 11h-.9022c-.3419 0-.6601-.1747-.8436-.4631l-5.7273-9.00002c-.4236-.66573.0546-1.53688.8437-1.53688h12.3566c.7891 0 1.2673.871153.8437 1.53688l-5.7273 9.00002c-.1835.2884-.5017.4631-.8436.4631z" fill="url(#d)"/><path d="m18 51v-.3274h.4283c.3743 0 .6598-.0531.8565-.1593.203-.1121.3521-.2626.4473-.4514.0571-.1238.0856-.4955.0856-1.115v-7.8938c0-.6136-.0349-.9971-.1047-1.1504-.0698-.1534-.2125-.2862-.4282-.3983-.2094-.118-.4949-.177-.8565-.177h-.4283v-.3274h5.7767c1.5417 0 2.7821.1947 3.7211.5841 1.1484.4778 2.0176 1.2006 2.6076 2.1681.5964.9676.8946 2.062.8946 3.2832 0 .8437-.1459 1.6224-.4378 2.3363-.2918.7079-.6693 1.295-1.1325 1.761-.4631.4602-.9992.8319-1.6083 1.1151-.6028.2773-1.3419.4926-2.2174.646-.3871.0708-.9961.1062-1.8273.1062zm4.9202-11.3186v9.3628c0 .4956.0254.7995.0761.9116.0508.112.1364.1976.257.2566.1713.0885.4187.1327.7423.1327 1.0595 0 1.8685-.3363 2.4268-1.0088.7613-.9086 1.142-2.3186 1.142-4.2301 0-1.5398-.2601-2.7699-.7804-3.6903-.4124-.7197-.9421-1.2094-1.5893-1.469-.4568-.1829-1.215-.2714-2.2745-.2655z" fill="#000" fill-opacity=".1"/></svg>