<svg fill="none" height="24" viewBox="0 0 24 24" width="24" xmlns="http://www.w3.org/2000/svg" xmlns:xlink="http://www.w3.org/1999/xlink"><linearGradient id="a" gradientUnits="userSpaceOnUse" x1="2" x2="22" y1="11.7959" y2="11.7959"><stop offset="0" stop-color="#ff9574"/><stop offset="1" stop-color="#ff4c8c"/></linearGradient><path d="m21.25 6.99999v-.00069c.0005-.55817-.1091-1.11096-.3224-1.62674-.2134-.51578-.5264-.98442-.9211-1.37911-.3946-.39468-.8633-.70766-1.3791-.92103-.5157-.21336-1.0685-.32293-1.6267-.32242h-.0007-10-.00068c-.55818-.0005-1.11096.10905-1.62673.32242s-.98442.52637-1.37912.92106c-.39469.3947-.70767.86331-.92103 1.37908-.21337.51578-.32294 1.06858-.32244 1.62675v.00068 9.99971.0003c.00049 1.127.44842 2.2077 1.24534 3.0047.79693.7969 1.87764 1.2448 3.00466 1.2453zm0 0v9.99971m0-9.99971v9.99971m0 0v.0003m0-.0003v.0003m0 0c-.0005 1.127-.4484 2.2077-1.2453 3.0047m1.2453-3.0047-1.2453 3.0047m0 0c-.797.7969-1.8777 1.2448-3.0047 1.2453m3.0047-1.2453-3.0047 1.2453m0 0c-.0001 0-.0002 0-.0003 0m.0003 0h-.0003m0 0h-9.99942z" stroke="url(#a)" stroke-width="1.5"/><path d="m16.2461 12c-.0014.1985-.0809.3884-.2213.5287-.1403.1404-.3302.2199-.5287.2213h-2.75v2.75c0 .1989-.079.3897-.2197.5303-.1406.1407-.3314.2197-.5303.2197s-.3897-.079-.5303-.2197c-.1407-.1406-.2197-.3314-.2197-.5303v-2.75h-2.75001c-.19891 0-.38967-.079-.53032-.2197-.14066-.1406-.21968-.3314-.21968-.5303s.07902-.3897.21968-.5303c.14065-.1407.33141-.2197.53032-.2197h2.75001v-2.75c0-.19891.079-.38968.2197-.53033.1406-.14066.3314-.21967.5303-.21967s.3897.07901.5303.21967c.1407.14065.2197.33142.2197.53033v2.75h2.75c.0985-.0001.1961.0192.2872.0568.091.0377.1737.0929.2434.1626s.1249.1524.1626.2434c.0376.0911.0569.1887.0568.2872z" fill="#fff"/></svg>