<svg fill="none" height="24" viewBox="0 0 24 24" width="24" xmlns="http://www.w3.org/2000/svg"><g stroke-linecap="round" stroke-width="1.5"><path d="m17 22h-10c-1.32608 0-2.59784-.5268-3.53552-1.4645-.93768-.9376-1.46448-2.2094-1.46448-3.5355v-10c0-1.32608.5268-2.59786 1.46448-3.53554s2.20944-1.46446 3.53552-1.46446h10c1.3261 0 2.5979.52678 3.5355 1.46446.9377.93768 1.4645 2.20946 1.4645 3.53554v10c.0002.6567-.129 1.3069-.3803 1.9136-.2512.6067-.6195 1.158-1.0838 1.6223s-1.0156.8326-1.6223 1.0838c-.6067.2513-1.2569.3805-1.9136.3803z" stroke="#686868" stroke-miterlimit="10"/><g stroke="#b5b5b5" stroke-linejoin="round"><path d="m8.5 12h7"/><path d="m12 15.5v-7"/></g></g></svg>