<svg height="22" viewBox="0 0 20 20" width="22" xmlns="http://www.w3.org/2000/svg"><defs><linearGradient id="prefix__a" x1="2.72" y1="14" x2="22" y2="14" gradientTransform="matrix(1 0 0 -1 0 26)" gradientUnits="userSpaceOnUse"><stop offset="0" stop-color="#ff9574"/><stop offset="1" stop-color="#ff4c8c"/></linearGradient></defs><path d="M7 21.25A4.27 4.27 0 012.75 17h0V7h0a4.34 4.34 0 01.32-1.63A4.57 4.57 0 014 4a4.57 4.57 0 011.38-.92A4.34 4.34 0 017 2.75h10a4.34 4.34 0 011.63.32A4.57 4.57 0 0120 4a4.57 4.57 0 01.92 1.38A4.34 4.34 0 0121.25 7h0v10h0A4.27 4.27 0 0117 21.25H7z" transform="translate(-2 -2)" fill="none" stroke-width="1.2" stroke="url(#prefix__a)"/><path d="M14.25 10a.8.8 0 01-.23.53.74.74 0 01-.52.22h-2.75v2.75a.75.75 0 01-.22.53.77.77 0 01-.53.22.75.75 0 01-.53-.22.71.71 0 01-.22-.53v-2.75H6.5a.75.75 0 01-.5-.22.75.75 0 010-1.06.75.75 0 01.53-.22h2.75V6.5a.71.71 0 01.19-.5.75.75 0 01.53-.25.77.77 0 01.53.22.75.75 0 01.22.53v2.75h2.75a.71.71 0 01.28.06.67.67 0 01.25.16.78.78 0 01.16.24.72.72 0 01.06.29z" fill="#fff"/></svg>