<svg fill="none" height="24" viewBox="0 0 24 24" width="24" xmlns="http://www.w3.org/2000/svg" xmlns:xlink="http://www.w3.org/1999/xlink"><linearGradient id="a" gradientUnits="userSpaceOnUse" x1="2" x2="22" y1="11.7959" y2="11.7959"><stop offset="0" stop-color="#ff9574"/><stop offset="1" stop-color="#ff4c8c"/></linearGradient><path d="m7 2.75h10c2.3472 0 4.25 1.90279 4.25 4.25v10c0 2.3472-1.9028 4.25-4.25 4.25h-10c-2.34721 0-4.25-1.9028-4.25-4.25v-10c0-2.34721 1.90279-4.25 4.25-4.25z" stroke="url(#a)" stroke-width="1.5"/><path d="m18.6881 8.87061c-.345.86903-.8673 1.65659-1.5337 2.31259-.6663.656-1.4619 1.166-2.3363 1.4974-.9548.2621-1.9617.269-2.92.02-.724-.1866-1.4827-.1935-2.20996-.02-.69282.2823-1.3202.7041-1.84316 1.2391s-.93034 1.1719-1.19684 1.8709c-.06203.1272-.15885.2341-.27922.3085-.12037.0743-.25936.113-.40083.1115-.11446-.0027-.227-.03-.33-.08-.17744-.0878-.31286-.2423-.37659-.4298-.06372-.1874-.05057-.3924.03659-.5702 1.04-2.1 2.37-3.41 3.95-3.88.95551-.2569 1.96101-.2638 2.92001-.02.7227.1967 1.4839.2036 2.21.02.6749-.2795 1.2861-.6931 1.7966-1.2156.5105-.52252.9097-1.14316 1.1734-1.8244.0878-.17745.2423-.31285.4297-.37658.1875-.06373.3925-.05058.5703.03659.0886.04259.1679.10243.2332.17602.0652.0736.1151.15945.1468.25257.0316.09311.0444.19162.0376.28973-.0069.09811-.0333.19387-.0776.28168z" fill="#fff"/></svg>