<svg fill="none" height="24" viewBox="0 0 24 24" width="24" xmlns="http://www.w3.org/2000/svg" xmlns:xlink="http://www.w3.org/1999/xlink"><linearGradient id="a" gradientUnits="userSpaceOnUse" x1="2" x2="22" y1="11.796" y2="11.796"><stop offset="0" stop-color="#ff9574"/><stop offset="1" stop-color="#ff4c8c"/></linearGradient><path d="m17 2h-10c-2.76142 0-5 2.23858-5 5v10c0 2.7614 2.23858 5 5 5h10c2.7614 0 5-2.2386 5-5v-10c0-2.76142-2.2386-5-5-5z" fill="url(#a)"/><path d="m18.6879 8.87061c-.3451.86903-.8674 1.65659-1.5337 2.31259s-1.462 1.166-2.3363 1.4974c-.9548.2621-1.9617.269-2.92.02-.724-.1866-1.4827-.1935-2.21-.02-.69283.2823-1.3202.7041-1.84317 1.2391-.52296.535-.93034 1.1719-1.19683 1.8709-.06204.1272-.15885.2341-.27923.3085-.12037.0743-.25935.113-.40082.1115-.11446-.0027-.22701-.03-.33-.08-.17744-.0878-.31286-.2423-.37659-.4298-.06373-.1874-.05057-.3924.03658-.5702 1.04-2.1 2.37001-3.41 3.95001-3.88.95555-.2569 1.96105-.2638 2.91995-.02.7227.1967 1.4839.2036 2.21.02.675-.2795 1.2861-.6931 1.7966-1.2156.5105-.52252.9097-1.14316 1.1734-1.8244.0878-.17745.2424-.31285.4298-.37658s.3925-.05058.5702.03659c.0887.04259.168.10243.2332.17602.0653.0736.1152.15945.1468.25257.0317.09311.0445.19162.0376.28973-.0068.09811-.0332.19387-.0775.28168z" fill="#fff"/></svg>