<svg
  width="10"
  height="10"
  viewBox="0 0 10 10"
  fill="none"
  xmlns="http://www.w3.org/2000/svg"
>
  <path
    d="M5 10C7.77085 10 10 7.77085 10 5C10 2.22915 7.77085 0 5 0C2.22915 0 0 2.22915 0 5C0 7.77085 2.22915 10 5 10Z"
    fill="#2775CA"
  />
  <path
    d="M6.37466 5.79169C6.37466 5.06254 5.93716 4.81254 5.06216 4.70839C4.43716 4.62504 4.31216 4.45839 4.31216 4.16669C4.31216 3.87499 4.52051 3.68754 4.93716 3.68754C5.31216 3.68754 5.52051 3.81254 5.62466 4.12504C5.64551 4.18754 5.70801 4.22919 5.77051 4.22919H6.10381C6.18716 4.22919 6.24966 4.16669 6.24966 4.08339V4.06254C6.16631 3.60419 5.79131 3.25004 5.31216 3.20839V2.70839C5.31216 2.62504 5.24966 2.56254 5.14551 2.54169H4.83301C4.74966 2.54169 4.68716 2.60419 4.66631 2.70839V3.18754C4.04131 3.27089 3.64551 3.68754 3.64551 4.20839C3.64551 4.89589 4.06216 5.16669 4.93716 5.27089C5.52051 5.37504 5.70801 5.50004 5.70801 5.83339C5.70801 6.16674 5.41631 6.39589 5.02051 6.39589C4.47881 6.39589 4.29131 6.16669 4.22881 5.85419C4.20801 5.77089 4.14551 5.72919 4.08301 5.72919H3.72881C3.64551 5.72919 3.58301 5.79169 3.58301 5.87504V5.89589C3.66631 6.41669 3.99966 6.79169 4.68716 6.89589V7.39589C4.68716 7.47919 4.74966 7.54169 4.85381 7.56254H5.16631C5.24966 7.56254 5.31216 7.50004 5.33301 7.39589V6.89589C5.95801 6.79169 6.37466 6.35419 6.37466 5.79169Z"
    fill="white"
  />
  <path
    d="M3.93791 7.9793C2.31291 7.396 1.47956 5.5835 2.08376 3.9793C2.39626 3.1043 3.08376 2.43765 3.93791 2.12515C4.02126 2.0835 4.06291 2.021 4.06291 1.9168V1.62515C4.06291 1.5418 4.02126 1.4793 3.93791 1.4585C3.91706 1.4585 3.87541 1.4585 3.85456 1.4793C1.87541 2.1043 0.792056 4.2085 1.41706 6.18765C1.79206 7.3543 2.68791 8.25015 3.85456 8.62515C3.93791 8.6668 4.02126 8.62515 4.04206 8.5418C4.06291 8.521 4.06291 8.50015 4.06291 8.4585V8.1668C4.06291 8.1043 4.00041 8.021 3.93791 7.9793ZM6.14626 1.4793C6.06291 1.43765 5.97956 1.4793 5.95876 1.56265C5.93791 1.5835 5.93791 1.6043 5.93791 1.646V1.93765C5.93791 2.021 6.00041 2.1043 6.06291 2.146C7.68791 2.7293 8.52126 4.5418 7.91706 6.146C7.60456 7.021 6.91706 7.68765 6.06291 8.00015C5.97956 8.0418 5.93791 8.1043 5.93791 8.2085V8.50015C5.93791 8.5835 5.97956 8.646 6.06291 8.6668C6.08376 8.6668 6.12541 8.6668 6.14626 8.646C8.12541 8.021 9.20876 5.9168 8.58376 3.93765C8.20876 2.75015 7.29206 1.8543 6.14626 1.4793Z"
    fill="white"
  />
</svg>
