<svg width="24" height="24" viewBox="0 0 24 24" fill="none" xmlns="http://www.w3.org/2000/svg">
<path d="M10.6209 12.7657L3.36099 8.91762C3.36099 8.91762 3.36099 8.91762 3.36099 8.91762C3.18184 8.82266 3.03192 8.68068 2.92737 8.50692C2.82282 8.33317 2.76758 8.13423 2.76758 7.93146C2.76758 7.72868 2.82282 7.52974 2.92737 7.35599C3.03192 7.18224 3.18184 7.04025 3.36099 6.94529C3.36099 6.94529 3.36099 6.94529 3.36099 6.94529L10.6209 3.09726C11.0511 2.86922 11.5307 2.75 12.0176 2.75C12.5045 2.75 12.984 2.86922 13.4142 3.09725L20.6742 6.94529C20.8533 7.04025 21.0032 7.18224 21.1078 7.35599C21.2123 7.52974 21.2676 7.72868 21.2676 7.93146C21.2676 8.13423 21.2123 8.33317 21.1078 8.50692C21.0032 8.68068 20.8533 8.82266 20.6742 8.91762L13.4142 12.7657C12.984 12.9937 12.5045 13.1129 12.0176 13.1129C11.5307 13.1129 11.0512 12.9937 10.6209 12.7657Z" stroke="url(#paint0_linear_112_15718)" stroke-width="1.5"/>
<path d="M12 21.9998C11.2964 21.9998 10.6035 21.8276 9.98168 21.4982L3.37029 17.9933C2.9513 17.7713 2.60073 17.4393 2.35621 17.0331C2.11169 16.6268 1.98247 16.1616 1.98242 15.6874C1.98238 15.2132 2.11151 14.748 2.35595 14.3417C2.60039 13.9353 2.95091 13.6033 3.36985 13.3812C3.47543 13.3252 3.59101 13.2904 3.71001 13.279C3.829 13.2677 3.94907 13.2798 4.06337 13.3148C4.17767 13.3499 4.28395 13.407 4.37614 13.4831C4.46834 13.5592 4.54464 13.6527 4.6007 13.7583C4.65676 13.8639 4.69148 13.9794 4.70287 14.0984C4.71425 14.2174 4.70209 14.3375 4.66708 14.4518C4.63206 14.5661 4.57488 14.6724 4.49879 14.7646C4.4227 14.8568 4.3292 14.9331 4.22362 14.9892C4.09693 15.0563 3.99091 15.1566 3.91695 15.2794C3.843 15.4022 3.80389 15.5429 3.80385 15.6862C3.8038 15.8296 3.84281 15.9703 3.91669 16.0932C3.99056 16.216 4.09652 16.3164 4.22317 16.3836L10.8346 19.8885C11.1935 20.0791 11.5937 20.1787 12.0001 20.1787C12.4064 20.1787 12.8066 20.0791 13.1656 19.8885L19.7769 16.3836C19.9036 16.3164 20.0095 16.216 20.0834 16.0932C20.1573 15.9703 20.1963 15.8296 20.1963 15.6863C20.1962 15.5429 20.1571 15.4022 20.0832 15.2794C20.0092 15.1566 19.9032 15.0563 19.7765 14.9892C19.6709 14.9331 19.5774 14.8568 19.5013 14.7646C19.4252 14.6724 19.3681 14.5661 19.333 14.4518C19.298 14.3375 19.2859 14.2174 19.2972 14.0984C19.3086 13.9794 19.3434 13.8639 19.3994 13.7583C19.4555 13.6527 19.5318 13.5592 19.624 13.4831C19.7162 13.407 19.8224 13.3499 19.9367 13.3148C20.051 13.2798 20.1711 13.2677 20.2901 13.279C20.4091 13.2904 20.5247 13.3252 20.6303 13.3812C21.0492 13.6033 21.3997 13.9354 21.6442 14.3417C21.8886 14.748 22.0177 15.2132 22.0177 15.6874C22.0176 16.1616 21.8884 16.6268 21.6439 17.0331C21.3994 17.4393 21.0488 17.7713 20.6298 17.9933L14.0184 21.4982C13.3966 21.8276 12.7037 21.9998 12 21.9998V21.9998Z" fill="white"/>
<defs>
<linearGradient id="paint0_linear_112_15718" x1="2.01758" y1="7.81043" x2="22.0176" y2="7.81043" gradientUnits="userSpaceOnUse">
<stop stop-color="#FF9574"/>
<stop offset="1" stop-color="#FF4C8C"/>
</linearGradient>
</defs>
</svg>
