<svg width="24" height="24" viewBox="0 0 24 24" fill="none" xmlns="http://www.w3.org/2000/svg">
<path fill-rule="evenodd" clip-rule="evenodd" d="M12.15 1.05312C12.5174 0.995418 12.8934 1.0297 13.2444 1.15291C13.5953 1.27611 13.9103 1.4844 14.161 1.75912C14.545 2.17912 14.649 2.78612 14.698 3.36412C14.75 3.97412 14.75 4.78712 14.75 5.80412V7.60012C14.75 8.03212 14.75 8.31212 14.768 8.52412C14.785 8.72812 14.813 8.80412 14.832 8.84012C14.9039 8.98137 15.0187 9.0962 15.16 9.16813C15.197 9.18813 15.272 9.21513 15.476 9.23213C15.688 9.24913 15.968 9.25012 16.4 9.25012H17.044C17.811 9.25012 18.439 9.25012 18.924 9.29412C19.404 9.33812 19.896 9.43312 20.283 9.74212C20.5472 9.95308 20.7604 10.2209 20.9069 10.5256C21.0533 10.8303 21.1293 11.1641 21.129 11.5021C21.129 11.9971 20.895 12.4421 20.629 12.8421C20.361 13.2491 19.969 13.7391 19.49 14.3381L19.466 14.3681L18.586 15.4681C18.4617 15.6235 18.2808 15.7232 18.0831 15.7453C17.8853 15.7673 17.6869 15.7099 17.5315 15.5856C17.3761 15.4614 17.2764 15.2805 17.2543 15.0827C17.2323 14.885 17.2897 14.6865 17.414 14.5311L18.295 13.4311C18.804 12.7951 19.152 12.3581 19.378 12.0161C19.613 11.6621 19.629 11.5311 19.629 11.5011C19.6291 11.3884 19.6038 11.277 19.555 11.1754C19.5062 11.0738 19.4351 10.9845 19.347 10.9141C19.323 10.8941 19.211 10.8261 18.788 10.7881C18.379 10.7511 17.821 10.7501 17.007 10.7501H16.371C15.976 10.7501 15.635 10.7501 15.354 10.7271C15.057 10.7031 14.762 10.6491 14.479 10.5051C14.0552 10.2893 13.7108 9.94486 13.495 9.52112C13.351 9.23812 13.297 8.94312 13.273 8.64612C13.25 8.36612 13.25 8.02412 13.25 7.62912V5.84212C13.25 4.77812 13.25 4.03012 13.204 3.49112C13.192 3.2974 13.1619 3.10522 13.114 2.91712C13.1025 2.86506 13.0822 2.81534 13.054 2.77012C12.9704 2.67866 12.8655 2.60933 12.7486 2.56832C12.6316 2.52731 12.5064 2.51591 12.384 2.53512C12.384 2.53512 12.342 2.54412 12.244 2.61312C12.0894 2.72983 11.9461 2.86073 11.816 3.00412C11.444 3.39712 10.976 3.98112 10.312 4.81112L8.98599 6.47012C8.8616 6.62554 8.68057 6.72518 8.48272 6.74712C8.28487 6.76906 8.0864 6.71151 7.93099 6.58712C7.77557 6.46274 7.67593 6.28171 7.65399 6.08386C7.63205 5.88601 7.6896 5.68754 7.81399 5.53212L9.13999 3.87412L9.16399 3.84412C9.79899 3.05012 10.307 2.41612 10.729 1.97212C11.128 1.55212 11.589 1.14212 12.15 1.05312Z" fill="#B5B5B5"/>
<path fill-rule="evenodd" clip-rule="evenodd" d="M8.8691 5.41392C8.94611 5.47547 9.01024 5.55159 9.05781 5.63795C9.10538 5.7243 9.13546 5.81918 9.14633 5.91717C9.1572 6.01515 9.14864 6.11432 9.12114 6.209C9.09365 6.30367 9.04776 6.392 8.9861 6.46892L5.7061 10.5689C5.1961 11.2049 4.8481 11.6419 4.6221 11.9839C4.3871 12.3379 4.3711 12.4689 4.3711 12.4989C4.37096 12.6117 4.39624 12.723 4.44506 12.8246C4.49388 12.9263 4.56499 13.0156 4.6531 13.0859C4.6771 13.1059 4.7891 13.1739 5.2121 13.2119C5.6211 13.2489 6.1791 13.2499 6.9941 13.2499H7.6291C8.0241 13.2499 8.3651 13.2499 8.6461 13.2729C8.9431 13.2969 9.2381 13.3509 9.5221 13.4949C9.9451 13.7109 10.2891 14.0549 10.5051 14.4789C10.6491 14.7619 10.7031 15.0569 10.7271 15.3539C10.7501 15.6339 10.7501 15.9759 10.7501 16.3709V18.1579C10.7501 19.2219 10.7501 19.9699 10.7961 20.5089C10.8191 20.7759 10.8501 20.9579 10.8861 21.0829C10.9181 21.1929 10.9451 21.2279 10.9461 21.2299C11.0297 21.3214 11.1346 21.3907 11.2515 21.4317C11.3684 21.4727 11.4937 21.4841 11.6161 21.4649C11.6191 21.4649 11.6621 21.4529 11.7561 21.3869C11.9106 21.2702 12.0539 21.1393 12.1841 20.9959C12.5561 20.6039 13.0241 20.0199 13.6891 19.1889L17.4141 14.5309C17.5385 14.3755 17.7195 14.2759 17.9174 14.2539C18.1152 14.232 18.3137 14.2895 18.4691 14.4139C18.6245 14.5383 18.7242 14.7193 18.7461 14.9172C18.768 15.115 18.7105 15.3135 18.5861 15.4689L14.8601 20.1259L14.8361 20.1559C14.2011 20.9499 13.6931 21.5839 13.2711 22.0279C12.8721 22.4489 12.4111 22.8579 11.8501 22.9469C11.4827 23.0046 11.1066 22.9703 10.7557 22.8471C10.4048 22.7239 10.0898 22.5157 9.8391 22.2409C9.4551 21.8209 9.3511 21.2139 9.3021 20.6359C9.2501 20.0259 9.2501 19.2129 9.2501 18.1959V16.3999C9.2501 15.9679 9.2501 15.6879 9.2321 15.4759C9.2151 15.2719 9.1871 15.1959 9.1681 15.1589C9.09626 15.0182 8.98182 14.9038 8.84109 14.8319C8.80309 14.8119 8.7281 14.7849 8.5241 14.7679C8.21641 14.7507 7.90821 14.7447 7.6001 14.7499H6.9561C6.1891 14.7499 5.5611 14.7499 5.0761 14.7059C4.5961 14.6629 4.1041 14.5669 3.7171 14.2589C3.45278 14.0479 3.23946 13.7799 3.09299 13.475C2.94652 13.1702 2.87068 12.8362 2.8711 12.4979C2.8711 12.0029 3.1051 11.5579 3.3711 11.1579C3.6391 10.7509 4.0311 10.2609 4.5111 9.66192L4.5341 9.63192L7.8141 5.53192C7.87557 5.45483 7.95164 5.39062 8.03795 5.34296C8.12427 5.29529 8.21914 5.26512 8.31713 5.25416C8.41512 5.2432 8.51431 5.25167 8.60902 5.27908C8.70373 5.3065 8.79211 5.35232 8.8691 5.41392Z" fill="#686868"/>
</svg>
