<svg width="24" height="24" viewBox="0 0 24 24" fill="none" xmlns="http://www.w3.org/2000/svg">
    <path d="M17 22H7C5.67392 22 4.40216 21.4732 3.46448 20.5355C2.5268 19.5979 2 18.3261 2 17V7C2 5.67392 2.5268 4.40214 3.46448 3.46446C4.40216 2.52678 5.67392 2 7 2H17C18.3261 2 19.5979 2.52678 20.5355 3.46446C21.4732 4.40214 22 5.67392 22 7V17C22.0002 17.6567 21.871 18.3069 21.6197 18.9136C21.3685 19.5203 21.0002 20.0716 20.5359 20.5359C20.0716 21.0002 19.5203 21.3685 18.9136 21.6197C18.3069 21.871 17.6567 22.0002 17 22V22Z"
          stroke="url(#paint0_linear_112_15720)" stroke-width="1.5" stroke-miterlimit="10" stroke-linecap="round"/>
    <path d="M8.5 12H15.5" stroke="#B5B5B5" stroke-width="1.5" stroke-linecap="round" stroke-linejoin="round"/>
    <path d="M12 15.5V8.5" stroke="#B5B5B5" stroke-width="1.5" stroke-linecap="round" stroke-linejoin="round"/>
    <defs>
        <linearGradient id="paint0_linear_112_15720" x1="2" y1="11.7959" x2="22" y2="11.7959"
                        gradientUnits="userSpaceOnUse">
            <stop stop-color="#FF9574"/>
            <stop offset="1" stop-color="#FF4C8C"/>
        </linearGradient>
    </defs>
</svg>
